<svg width="887" height="166" viewBox="0 0 887 166" fill="none" xmlns="http://www.w3.org/2000/svg">
<path d="M44.8242 45.166C45.166 45.3125 46.3867 46.6797 48.4375 49.3164C50.4883 51.9531 52.6855 54.834 55.0781 57.959C57.4219 61.084 59.6191 63.9648 61.6211 66.5527C63.5742 69.1406 64.6973 70.4102 64.9902 70.4102C65.7715 70.4102 69.1406 68.7012 75.0977 65.1855C81.0547 61.6699 84.9121 59.7168 86.6699 59.3262L63.6719 6.49414C62.207 6.88477 59.1309 8.25195 54.3457 10.6934C49.5605 13.1348 46.3379 14.7461 44.6289 15.625L39.9414 17.9688L35.3516 20.2637C34.4727 20.6543 33.6914 21.0449 32.959 21.3867C32.1777 21.7285 31.3965 22.0703 30.6152 22.4609C29.7852 22.8516 29.0527 24.4629 28.418 27.1973C27.4414 31.0059 26.5137 34.7656 25.6836 38.4277C24.8047 42.0898 23.9258 45.8008 22.9492 49.5605C22.4609 51.3184 21.9727 53.1738 21.4844 55.0781C20.9961 56.9824 20.5566 58.8379 20.2148 60.6934C19.6289 63.5742 19.1895 65.4297 18.7988 66.3086C18.4082 67.1875 16.6016 67.627 13.3789 67.627L2.63672 154.59L60.5469 161.963L95.9473 96.8262L78.3691 83.6914L39.6484 124.609L44.8242 45.166ZM63.8672 3.4668L64.4531 3.22266H64.9902L65.2832 3.75977L65.5273 4.29688L65.8203 4.58984L66.1133 5.12695L66.4062 5.41992L66.6504 5.71289L66.9434 6.25L67.2363 6.54297L67.4805 6.78711L67.7734 7.08008L68.0664 7.66602L68.3105 7.91016L68.6035 8.20312L68.8965 8.49609L69.1895 9.0332L69.4336 9.32617L69.7266 9.57031L69.9707 10.1562L70.2637 10.4492L70.5566 10.6934L70.8496 10.9863L71.0938 11.5234L71.3867 11.8164L71.6797 12.1094L71.9238 12.6465L72.2168 12.9395L72.5098 13.1836L72.7539 13.4766L73.0469 14.0137L73.3398 14.3066L73.584 14.5996L73.877 14.8438L74.1699 15.4297L74.4629 15.7227L74.707 15.9668L75 16.5039L75.293 16.7969L75.5371 17.0898L75.8301 17.3828L76.123 17.9199L76.3672 18.2129L76.6602 18.5059L76.9531 19.043L77.2461 19.2871L77.4902 19.5801L77.7832 19.873L78.0273 20.4102L78.3203 20.7031L78.6133 20.9961L78.9062 21.2891L79.1504 21.8262L79.4434 22.0703L79.7363 22.3633L80.0293 22.9492L80.2734 23.1934L80.5664 23.4863L80.8105 23.7793L81.1035 24.3164L81.3965 24.6094L81.6895 24.8535L81.9336 25.4395L82.2266 25.6836L82.5195 25.9766L82.7637 26.2695L83.0566 26.8066L83.3496 27.0996L83.5938 27.3438L83.8867 27.6367L84.1797 28.2227L84.4238 28.4668L84.7168 28.7598L85.0098 29.2969L85.3027 29.5898L85.5469 29.8828L85.8398 30.127L86.084 30.7129L86.377 31.0059L86.6699 31.25L86.9629 31.543L87.207 32.0801L87.5 32.373L87.793 32.666L88.0859 33.2031L88.3301 33.4961L88.623 33.7891L88.8672 34.0332L89.1602 34.5703L89.4531 34.8633L89.7461 35.1562L89.9902 35.6934L90.2832 35.9863L90.5762 36.5234L90.8691 37.1094L91.1133 37.9395L91.4062 38.4766L91.6504 39.0625L91.9434 39.5996L92.2363 40.4297L92.5293 40.9668L92.7734 41.5527L93.0664 42.3828L93.3594 42.9199L93.6035 43.5059L93.8965 44.043L94.1895 44.873L94.4336 45.4102L94.7266 45.9961L95.0195 46.8262L95.2637 47.3633L95.5566 47.9492L95.8496 48.4863L96.1426 49.3164L96.3867 49.8535L96.6797 50.4395L96.9238 51.2695L97.2168 51.8066L97.5098 52.3438L97.8027 52.9297L98.0469 53.7598L98.3398 54.3457L98.6328 54.8828L98.9258 55.7129L99.1699 56.25L99.4629 56.8359L99.707 57.373L100 58.2031L100.293 58.7891L100.586 59.3262L100.83 60.1562L101.123 60.6934L101.416 61.2793L101.709 61.8164L101.953 62.6465L102.246 63.1836L102.49 63.7695L102.783 64.3066L103.076 65.1367L103.369 65.7227L103.613 66.2598L103.906 67.0898L104.199 67.627L104.443 68.2129L104.736 68.75L105.029 69.6289L105.273 70.166L105.566 70.7031L105.859 71.5332L106.104 72.0703L106.396 72.6074L106.689 73.1934L106.982 74.0234L107.227 74.6094L107.52 75.1465L107.764 75.9766L108.057 76.5137L108.35 77.0996L108.643 77.6367L108.887 78.4668L109.18 79.0039L109.473 79.5898V80.127L109.18 80.957L108.887 81.7871L108.35 82.0801L107.764 82.373L107.227 82.666L106.689 82.9102L106.104 83.2031L105.566 83.4473L105.029 83.7402L104.443 84.0332L103.906 84.3262L103.613 84.5703L103.076 84.8633L102.49 85.1562L101.953 85.4004L101.416 85.6934L100.83 85.9863L100.293 86.2305L99.707 86.5234L99.1699 86.8164L98.6328 87.1094L98.3398 87.3535L97.8027 87.6465L97.2168 87.8906L96.6797 88.1836L96.1426 88.4766L95.5566 88.7695L95.0195 89.0137L94.4336 89.3066L93.8965 89.5996L93.3594 89.8438L92.7734 90.1367L92.5293 90.4297L92.2363 90.6738L92.5293 90.9668L92.7734 91.2598L93.3594 91.5039L93.6035 91.7969L93.8965 92.0898L94.4336 92.3828L94.7266 92.627L95.0195 92.9199L95.5566 93.1641L95.8496 93.457L96.3867 93.75L96.6797 94.043L96.9238 94.2871L97.5098 94.5801L97.8027 94.873L98.0469 95.166L98.6328 95.4102L98.9258 95.7031L99.1699 95.9473L99.707 96.2402L100 96.5332L100.293 96.8262L100.83 97.0703L101.123 97.3633L101.416 97.6562L101.953 97.9492L102.246 98.1934L102.49 98.4863L103.076 98.7305L103.369 99.0234L103.613 99.3164L104.199 99.6094L104.443 99.8535L104.736 100.146L105.029 100.439L105.566 100.684L105.859 100.977L106.104 101.27L106.689 101.514L106.982 101.807L107.227 102.1L107.764 102.344L108.057 102.637L108.35 102.93L108.887 103.174L109.18 103.467L109.473 103.76L109.766 104.004L110.303 104.297L110.547 104.59L110.84 104.883L111.426 105.127L111.67 105.42L111.963 105.713L112.549 105.957L112.793 106.25L113.086 106.543L113.33 106.787L113.916 107.08L114.209 107.373L114.453 107.666L115.039 107.91L115.283 108.203L115.576 108.447L116.113 108.74L116.406 109.033L116.699 109.863V110.986L116.406 111.523L116.113 112.109L115.869 112.646L115.576 113.184L115.283 113.477L115.039 114.014L114.746 114.6L114.453 115.137L114.209 115.723L113.916 116.26L113.623 116.797L113.33 117.09L113.086 117.627L112.793 118.213L112.549 118.75L112.256 119.287L111.963 119.873L111.67 120.166L111.426 120.703L111.133 121.24L110.84 121.826L110.547 122.363L110.303 122.949L110.01 123.486L109.766 123.73L109.473 124.316L109.18 124.854L108.887 125.439L108.643 125.977L108.35 126.514L108.057 126.807L107.764 127.344L107.52 127.93L107.227 128.467L106.982 129.004L106.689 129.59L106.396 129.883L106.104 130.42L105.859 131.006L105.566 131.543L105.273 132.08L105.029 132.666L104.736 133.203L104.443 133.496L104.199 134.033L103.906 134.57L103.613 135.156L103.369 135.693L103.076 136.279L102.783 136.523L102.49 137.109L102.246 137.646L101.953 138.184L101.709 138.77L101.416 139.307L101.123 139.844L100.83 140.137L100.586 140.723L100.293 141.26L100 141.797L99.707 142.383L99.4629 142.92L99.1699 143.213L98.9258 143.75L98.6328 144.287L98.3398 144.873L98.0469 145.41L97.8027 145.996L97.5098 146.533L97.2168 146.826L96.9238 147.363L96.6797 147.949L96.3867 148.486L96.1426 149.023L95.8496 149.609L95.5566 149.854L95.2637 150.439L95.0195 150.977L94.7266 151.562L94.4336 152.1L94.1895 152.637L93.8965 152.93L93.6035 153.467L93.3594 154.053L93.0664 154.59L92.7734 155.127L92.5293 155.713L92.2363 156.25L91.9434 156.543L91.6504 157.08L91.4062 157.666L91.1133 158.203L90.8691 158.789L90.5762 159.326L90.2832 159.57L89.9902 160.156L89.7461 160.693L89.4531 161.279L89.1602 161.816L88.8672 162.354L88.623 162.939L88.3301 163.184L88.0859 163.77L87.793 164.062L87.5 164.307L86.9629 164.6H61.084L58.8867 164.307L56.6406 164.062L54.4434 163.77L52.1973 163.477L50.2441 163.184L48.0469 162.939L45.8496 162.646L43.6035 162.354L41.3574 162.109L39.1602 161.816L36.9141 161.523L34.7168 161.279L32.7637 160.986L30.5176 160.693L28.3203 160.449L26.0742 160.156L23.877 159.863L21.6309 159.57L19.3848 159.326L17.2363 159.033L15.0391 158.789L13.0859 158.496L10.8398 158.203L8.59375 157.91L6.39648 157.666L4.19922 157.373L1.95312 157.08L0 156.787V155.42L0.292969 153.223L0.537109 150.977L0.830078 148.779L1.12305 146.533L1.41602 144.287L1.66016 141.797L1.95312 139.6L2.24609 137.354L2.53906 135.156L2.7832 132.91L3.07617 130.713L3.32031 128.467L3.61328 126.27L3.90625 124.023L4.19922 121.826L4.44336 119.58L4.73633 117.383L5.0293 115.137L5.27344 112.646L5.56641 110.449L5.85938 108.203L6.10352 105.957L6.39648 103.76L6.68945 101.514L6.93359 99.3164L7.22656 97.0703L7.51953 94.873L7.8125 92.627L8.05664 90.4297L8.34961 88.1836L8.59375 85.9863L8.88672 83.4473L9.17969 81.25L9.47266 79.0039L9.7168 76.8066L10.0098 74.6094L10.3027 72.3633L10.5957 70.166L10.8398 67.9199L11.1328 65.7227L11.9629 65.4297L14.1602 65.1367L16.1133 64.8926L16.6992 64.5996L16.9434 63.4766L17.2363 62.3535L17.5293 61.2793L17.7734 60.1562L18.0664 59.0332L18.3594 57.9102L18.6523 56.8359L18.8965 55.7129L19.1895 54.5898L19.3848 53.4668L19.6777 52.0996L19.9707 50.9766L20.2637 49.8535L20.5078 48.7793L20.8008 47.6562L21.0938 46.5332L21.3867 45.4102L21.6309 44.3359L21.9238 43.2129L22.168 42.0898L22.4609 40.7227L22.7539 39.5996L23.0469 38.4766L23.291 37.3535L23.584 36.2793L23.877 35.1562L24.1699 34.0332L24.4141 32.9102L24.707 31.7871L24.9512 30.7129L25.2441 29.5898L25.5371 28.2227L25.8301 27.0996L26.0742 25.9766L26.3672 24.8535L26.6602 23.7793L26.9043 22.6562L27.1973 21.5332L27.4902 21.2891L28.0273 20.9961L28.5645 20.7031L29.1504 20.4102L29.6875 20.166L30.2246 19.873L30.8105 19.5801L31.3477 19.2871L31.9336 19.043L32.4707 18.75L33.0078 18.5059L33.5938 18.2129L34.1309 17.9199L34.7168 17.627L35.2539 17.3828L35.791 17.0898L36.6699 16.7969L37.207 16.5039L37.7441 16.2598L38.3301 15.9668L38.8672 15.7227L39.4043 15.4297L39.9902 15.1367L40.5273 14.8438L41.0645 14.5996L41.6504 14.3066L42.1875 14.0137L42.7734 13.7695L43.3105 13.4766L43.8477 13.1836L44.4336 12.9395L44.9707 12.6465L45.5566 12.3535L46.0938 12.1094L46.6309 11.8164L47.2168 11.5234L47.7539 11.2793L48.3398 10.9863L48.877 10.6934L49.4141 10.4492L50.2441 10.1562L50.8301 9.86328L51.3672 9.57031L51.9043 9.32617L52.4902 9.0332L53.0273 8.78906L53.6133 8.49609L54.1504 8.20312L54.6875 7.91016L55.2734 7.66602L55.8105 7.37305L56.3965 7.08008L56.9336 6.78711L57.4707 6.54297L58.0566 6.25L58.5938 6.00586L59.1797 5.71289L59.7168 5.41992L60.2539 5.12695L60.8398 4.88281L61.377 4.58984L61.9629 4.29688L62.5 4.00391L63.3301 3.75977L63.8672 3.4668ZM155.273 102.832L126.27 114.697L141.992 70.7031L142.432 70.752L155.273 102.832ZM170.996 5.22461L118.945 15.2344C118.945 18.75 118.799 22.2656 118.506 25.7812C118.213 29.2969 118.115 32.7637 118.115 36.1816C118.115 37.9395 118.066 39.6973 117.969 41.5527C117.871 43.4082 117.578 44.9219 117.09 46.0938C116.504 47.4609 115.967 48.7793 115.479 50.0977C114.99 51.4648 114.502 52.7344 114.014 54.0039C111.914 59.2773 109.863 64.5508 107.812 69.7266C105.762 74.9023 103.711 80.127 101.66 85.3516C100.635 87.9883 99.6094 90.5762 98.6328 93.1152C97.6074 95.7031 96.582 98.291 95.5078 100.928C94.5312 103.516 93.457 106.152 92.2852 108.887C91.1133 111.621 90.1367 114.209 89.3066 116.748C88.9648 117.725 90.0879 123.291 92.7246 133.398C95.3613 143.506 96.7773 149.902 97.0703 152.588L180.713 119.189C180.713 117.09 181.006 114.258 181.592 110.645C182.178 107.08 182.08 104.541 181.396 103.027C180.42 101.074 179.492 98.9746 178.564 96.6797C177.637 94.4336 176.807 92.2852 176.025 90.332C172.314 81.0547 168.75 72.5098 165.283 64.6973C164.209 62.3535 163.281 60.3027 162.598 58.4473C161.914 56.6895 161.572 55.5664 161.67 55.0781C161.768 54.5898 162.012 53.2715 162.451 51.123C162.939 48.6816 163.379 46.1914 163.867 43.6523C164.307 41.1133 164.795 38.5254 165.332 35.9863C165.82 33.5449 166.26 31.0059 166.748 28.4668C167.188 25.9277 167.676 23.3398 168.213 20.752C168.506 19.1895 169.043 16.5527 169.824 12.8906C170.605 9.27734 170.996 6.68945 170.996 5.22461ZM171.826 2.63672L173.145 2.34375H173.926V3.41797V3.71094L174.17 4.19922L174.414 4.73633L174.707 5.22461L174.951 5.81055L175.195 6.29883L175.488 6.83594L175.781 7.32422L176.025 7.86133L176.27 8.39844L176.514 8.93555L176.807 9.42383L177.051 9.96094L177.295 10.498L177.588 11.0352L177.832 11.5234L178.076 12.0605L178.369 12.5977L178.662 13.0859L178.906 13.623L179.15 14.1602L179.395 14.6973L179.688 15.1855L179.932 15.7227L180.176 16.2598L180.469 16.7969L180.713 17.2852L180.957 17.8223L181.25 18.3594L181.494 18.8477L181.787 19.3848L182.031 19.9219L182.275 20.459L182.568 20.9473L182.812 21.4844L183.057 22.0215L183.35 22.5586L183.594 23.0469L183.838 23.584L184.131 24.1211L184.375 24.6582L184.668 25.1465L184.912 25.9277L185.156 26.4648L185.449 27.002L185.693 27.5391L185.938 28.0273L186.23 28.5645L186.475 29.1016L186.719 29.5898L187.012 30.127L187.256 30.6641L187.549 31.2012L187.793 31.6895L188.037 32.2266L188.33 32.7637L188.574 33.3008L188.818 33.7891L189.111 34.3262L189.355 34.8633L189.6 35.3516L189.893 35.8887L190.137 36.4258L190.43 36.9629L190.674 37.4512L190.918 37.9883L191.211 38.5254L191.455 39.0625L191.699 39.5508L191.992 40.0879L192.236 40.625L192.48 41.1621L192.773 41.6504L193.018 42.1875V44.2871L192.773 45.6055L192.48 46.9238L192.236 48.4863L191.992 49.8047L191.699 51.0742L191.455 52.3926L191.211 53.9551L190.918 55.2734L190.674 56.5918L190.43 58.1543L190.137 59.4727L189.893 60.791L189.6 62.1094L189.355 63.6719L189.111 64.9902L188.818 66.3086L188.574 67.8223L188.33 69.1895L188.037 70.459L187.793 71.7773L187.549 73.3398L187.256 74.6582L187.012 75.9277L186.719 77.2461L186.475 78.8086L186.23 80.127L185.938 81.4453L185.693 83.0078V84.8633L185.938 85.6445L186.23 86.1816L186.475 86.9629L186.719 87.4512L187.012 87.9883L187.256 88.7695L187.549 89.3066L187.793 89.8438L188.037 90.625L188.33 91.1621L188.574 91.9434L188.818 92.4316L189.111 92.9688L189.355 93.75L189.6 94.2871L189.893 94.8242L190.137 95.6055L190.43 96.1426L190.674 96.9238L190.918 97.4121L191.211 97.9492L191.455 98.7305L191.699 99.2676L191.992 99.8047L192.236 100.586L192.48 101.074L192.773 101.611L193.018 102.393L193.311 102.93L193.555 103.711L193.799 104.248L194.092 104.785L194.336 105.566L194.58 106.055L194.873 106.592L195.117 107.373L195.361 107.91L195.654 108.691L195.898 109.229L196.191 109.766L196.436 110.547L196.68 111.035L196.973 111.572L197.217 112.354L197.461 112.891L197.754 113.428L197.998 114.209L198.242 114.697L198.535 115.527L198.779 116.016L199.072 116.553L199.316 117.334L199.561 117.871L199.854 118.408L200.098 119.189L200.342 119.678L200.635 120.508L200.879 120.996L201.123 121.533L201.416 122.314L201.66 122.803V124.902L201.416 127.539L201.123 130.176L200.879 132.52L200.635 135.156L200.342 135.938L200.098 136.182L199.854 136.719L199.561 136.963L199.072 137.256L198.242 137.5L197.754 137.744L196.973 138.037L196.436 138.281L195.654 138.525L195.117 138.818L194.336 139.062L193.799 139.307L193.018 139.6L192.48 139.844L191.699 140.137L191.211 140.381L190.43 140.625L189.893 140.918L189.111 141.162L188.574 141.406L187.793 141.699L187.256 141.943L186.475 142.188L185.938 142.48L185.156 142.725L184.668 143.018L183.838 143.262L183.35 143.506L182.568 143.799L182.031 144.043L181.25 144.287L180.713 144.58L179.932 144.824L179.395 145.117L178.662 145.361L178.076 145.605L177.295 145.898L176.807 146.143L176.025 146.387L175.488 146.68L174.707 146.924L174.17 147.168L173.389 147.461L172.9 147.705L172.07 147.998L171.582 148.242L170.801 148.486L170.264 148.779L169.434 149.023L168.945 149.268L168.164 149.561L167.627 149.805L166.846 150.049L166.309 150.342L165.527 150.586L165.039 150.879L164.258 151.123L163.721 151.367L162.939 151.66L162.402 151.904L161.621 152.148L161.084 152.441L160.547 152.686L159.766 152.93L159.277 153.223L158.447 153.467L157.959 153.76L157.178 154.004L156.641 154.248L155.859 154.541L155.322 154.785L154.541 155.029L154.004 155.322L153.223 155.566L152.686 155.811L151.904 156.104L151.416 156.348L150.635 156.641L150.098 156.885L149.316 157.129L148.779 157.422L147.998 157.666L147.461 157.91L146.68 158.203L146.143 158.447L145.361 158.691L144.873 158.984L144.043 159.229L143.555 159.521L142.773 159.766L142.236 160.01L141.455 160.303L140.918 160.547L140.137 160.791L139.6 161.084L138.818 161.328L138.281 161.621L137.5 161.865L137.012 162.109L136.23 162.402L135.693 162.646L134.912 162.891L134.375 163.184L133.594 163.428L133.057 163.672L132.275 163.965L131.738 164.209H130.176L129.15 163.965L128.076 163.672L127.051 163.428L125.977 163.184L125.195 162.891L124.17 162.646L123.096 162.402L122.07 162.109L120.996 161.865L119.971 161.621L119.189 161.328L118.115 161.084L117.09 160.791L116.064 160.547L114.99 160.303L113.965 160.01L113.184 159.766L112.109 159.521L111.084 159.229L110.059 158.984L108.984 158.691L107.959 158.447L107.178 158.203L106.152 157.91L105.127 157.666L104.053 157.422L103.027 157.129L101.953 156.885L101.172 156.641L100.146 156.348L99.0723 156.104L98.0469 155.811L96.9727 155.566H95.9473H95.4102L95.166 154.785L94.873 153.76L94.6289 152.441L94.3848 151.367L94.0918 150.049L93.8477 149.023L93.6035 147.705L93.3105 146.68L93.0664 145.605L92.7734 144.287L92.5293 143.262L92.2852 141.943L91.9922 140.918L91.748 139.844L91.5039 138.525L91.2109 137.5L90.9668 136.182L90.7227 135.156L90.4297 133.838L90.1855 132.764L89.8926 131.738L89.6484 130.42L89.4043 129.395L89.1113 128.076L88.8672 127.051L88.623 125.684L88.3301 124.658L88.0859 123.633L87.8418 122.314L87.5488 121.289L87.3047 119.971L87.0117 118.896L86.7676 117.871V116.553L87.0117 116.016L87.3047 115.234L87.5488 114.697L87.8418 113.916L88.0859 113.428L88.3301 112.646L88.623 112.109L88.8672 111.328L89.1113 110.791L89.4043 110.01L89.6484 109.473L89.8926 108.691L90.1855 107.91L90.4297 107.373L90.7227 106.592L90.9668 106.055L91.2109 105.273L91.5039 104.785L91.748 104.004L91.9922 103.467L92.2852 102.686L92.5293 102.148L92.7734 101.367L93.0664 100.83L93.3105 100.049L93.6035 99.2676L93.8477 98.7305L94.0918 97.9492L94.3848 97.4121L94.6289 96.6309L94.873 96.1426L95.166 95.3125L95.4102 94.8242L95.6543 94.043L95.9473 93.5059L96.1914 92.7246L96.4844 92.1875L96.7285 91.4062L96.9727 90.625L97.2656 90.0879L97.5098 89.3066L97.7539 88.7695L98.0469 87.9883L98.291 87.4512L98.584 86.6699L98.8281 86.1816L99.0723 85.4004L99.3652 84.8633L99.6094 84.082L99.8535 83.5449L100.146 82.7637L100.391 81.9824L100.635 81.4453L100.928 80.6641L101.172 80.127L101.465 79.3457L101.709 78.8086L101.953 78.0273L102.246 77.5391L102.49 76.7578L102.734 76.2207L103.027 75.4395L103.271 74.9023L103.516 74.1211L103.809 73.584L104.053 72.8027L104.346 72.0215L104.59 71.4844L104.834 70.7031L105.127 70.2148L105.371 69.4336L105.615 68.8965L105.908 68.1152L106.152 67.5781L106.396 66.7969L106.689 66.3086L106.934 65.4785L107.178 64.9902L107.422 64.209L107.666 63.4277L107.959 62.8906L108.203 62.1094L108.447 61.5723L108.74 60.791L108.984 60.2539L109.229 59.4727L109.521 58.9355L109.766 58.1543L110.059 57.666L110.303 56.8359L110.547 56.3477L110.84 55.5664L111.084 54.7852L111.328 54.248L111.621 53.4668L111.865 52.9297L112.109 52.1484L112.354 51.6113L112.646 50.8301L112.939 50.293L113.184 49.5117L113.428 48.9746L113.721 48.1934L113.965 47.7051L114.209 46.9238L114.502 46.0938L114.746 45.6055L114.99 44.8242L115.234 44.2871L115.527 42.9688L115.82 36.1816L116.064 29.3457L116.309 22.5586L116.602 15.7227L116.846 13.3789L117.334 13.0859L118.701 12.8418L119.971 12.5977L121.289 12.3047L122.607 12.0605L124.17 11.8164L125.488 11.5234L126.758 11.2793L128.076 11.0352L129.395 10.7422L130.957 10.498L132.275 10.2051L133.594 9.96094L134.912 9.7168L136.23 9.42383L137.793 9.17969L139.111 8.93555L140.381 8.64258L141.699 8.39844L143.018 8.10547L144.58 7.86133L145.898 7.61719L147.217 7.32422L148.535 7.08008L149.805 6.83594L151.416 6.54297L152.686 6.29883L154.004 6.05469L155.322 5.81055L156.641 5.51758L158.203 5.22461L159.521 4.98047L160.84 4.73633L162.158 4.44336L163.428 4.19922L165.039 3.95508L166.309 3.71094L167.627 3.41797L168.945 3.17383L170.264 2.92969L171.826 2.63672ZM178.662 149.121C180.713 149.121 183.447 148.828 186.963 148.242C190.43 147.656 193.311 147.168 195.557 146.777C201.465 145.898 207.178 145.117 212.744 144.336C215.576 143.945 218.457 143.604 221.289 143.213C224.121 142.822 227.002 142.432 229.932 141.943C230.859 141.846 232.275 141.602 234.18 141.26C236.084 140.967 237.451 140.918 238.232 141.211C238.721 141.406 239.99 141.895 242.041 142.627C244.092 143.408 245.312 143.75 245.654 143.75C246.533 143.75 249.365 143.018 254.248 141.455C259.082 139.941 262.158 138.965 263.428 138.525C264.99 138.037 268.018 137.012 272.51 135.547C277.002 134.082 279.883 133.301 281.104 133.203L284.277 124.121L257.568 105.859L202.734 122.949C202.93 122.07 203.467 120.605 204.443 118.604C205.42 116.602 206.152 115.088 206.641 114.062C207.275 112.695 207.959 111.23 208.74 109.57C209.473 107.91 210.107 106.396 210.645 105.029C211.816 102.002 213.135 99.0234 214.6 95.9961C216.064 93.0176 217.432 89.9902 218.75 86.9629C221.289 81.0059 224.023 74.9512 226.953 68.8965C229.883 62.8418 232.568 56.8359 234.912 50.8301C235.986 47.9004 237.305 44.9707 238.77 41.9922C240.234 39.0137 241.602 36.0352 242.871 33.0078C244.141 29.9805 245.459 26.9531 246.826 23.9258C248.145 20.8984 249.512 17.9199 250.977 14.8926C251.27 14.3066 249.902 13.6719 246.973 13.0859C245.898 12.9395 244.922 12.8418 244.043 12.7441C243.164 12.6465 242.236 12.5 241.211 12.3047C239.258 12.0117 237.305 11.7676 235.449 11.5234C233.594 11.2793 231.689 10.9863 229.785 10.6934C228.32 10.498 224.316 9.96094 217.725 9.08203C211.084 8.20312 207.52 7.61719 207.031 7.32422C206.445 9.57031 205.615 12.207 204.492 15.1367C203.32 18.1152 202.393 20.752 201.66 22.998C201.172 24.3164 200.732 25.5859 200.293 26.8555C199.805 28.125 199.365 29.4434 198.926 30.8105C198.193 32.959 197.803 34.4238 197.803 35.2051C197.803 35.9863 197.607 37.5977 197.266 39.9414C196.289 46.2402 195.312 52.3926 194.336 58.3984C193.359 64.4531 192.383 70.5078 191.406 76.6113C190.43 82.666 189.404 88.7207 188.33 94.7754C187.207 100.83 186.133 106.885 185.107 112.939C184.717 115.381 183.643 121.777 181.982 132.031C180.322 142.285 179.199 147.998 178.662 149.121ZM205.029 5.32227L205.322 4.73633H206.445L208.447 5.0293L210.4 5.32227L212.402 5.61523L214.404 5.9082L216.406 6.15234L218.359 6.44531L220.361 6.73828L222.363 7.03125L224.316 7.32422L226.318 7.56836L228.32 7.91016L230.566 8.1543L232.568 8.44727L234.57 8.74023L236.572 8.98438L238.525 9.32617L240.527 9.57031L242.529 9.86328L244.531 10.1562L246.484 10.4492L248.486 10.7422L250.488 10.9863L252.49 11.2793L254.443 11.5723L255.029 11.8652V12.1582L254.736 12.6953V13.2812L255.029 14.1113L255.322 15.2832L255.566 16.1133L255.859 16.9434L256.152 18.1152L256.445 18.9453L256.738 20.1172L257.031 20.9473L257.275 21.8262L257.568 22.9492L257.861 23.7793L258.154 24.9023L258.447 25.7812L258.691 26.6602L258.984 27.7832L259.277 28.6133L259.57 29.7852L259.863 30.6152L260.107 31.4453L260.4 32.6172L260.693 33.4473L260.986 34.5703L261.279 35.4492L261.572 36.3281L261.816 37.4512L262.109 38.2812L262.402 39.4043L262.695 40.2832L262.988 41.1133L263.232 42.2852L263.525 43.1152L263.818 44.2871L264.111 45.1172L264.404 46.2402L264.648 47.1191L264.941 47.9492L265.234 49.0723L265.527 49.9512L265.82 51.0742L266.064 51.9043L266.357 52.7832V53.3691L266.064 54.4922L265.82 55.0781L265.527 55.6152L265.234 56.4941L264.941 57.0312L264.648 57.6172L264.404 58.2031L264.111 59.0332L263.818 59.6191L263.525 60.2051L263.232 60.7422L262.988 61.6211L262.695 62.1582L262.402 62.7441L262.109 63.3301L261.816 64.1602L261.572 64.7461L261.279 65.2832L260.986 65.8691L260.693 66.4062L260.4 67.2852L260.107 67.8223L259.863 68.4082L259.57 68.9941L259.277 69.8242L258.984 70.4102L258.691 70.9961L258.447 71.5332L258.154 72.3633L257.861 72.9492L257.568 73.4863L257.275 74.0723L257.031 74.9512L256.738 75.4883L256.445 76.0742L256.152 76.6602L255.859 77.1973L255.566 78.0762L255.322 78.6133L255.029 79.1992L254.736 79.7852L254.443 80.6152L254.15 81.2012L253.906 81.7871L253.564 82.3242L253.32 83.2031L253.027 83.7402L252.734 84.3262L252.49 84.8633L252.148 85.7422L251.904 86.3281L251.611 86.8652L251.318 87.4512L251.025 87.9883L250.732 88.8672L250.488 89.4043L250.195 89.9902L249.902 90.5762L249.609 91.4062L249.316 91.9922L249.072 92.5781L248.779 93.1152L248.486 93.9941L248.193 94.5312L247.9 95.1172L247.607 95.7031L247.363 96.5332L247.07 97.1191L246.777 97.6562L246.484 98.2422L246.191 98.8281L245.947 99.6582L245.654 100.244L245.361 100.83L245.068 101.367L244.775 102.246L244.531 102.783L244.238 103.369L243.945 103.906L243.652 104.785L243.359 105.322L243.066 105.908L242.822 106.494L242.529 107.324L242.236 107.91H242.529L243.359 107.617L244.238 107.324L245.068 107.031L245.947 106.787L247.07 106.494L247.9 106.201L248.779 105.908L249.609 105.615L250.488 105.322L251.611 105.078L252.49 104.785L253.32 104.492L254.15 104.199L255.029 103.906L255.859 103.662L257.031 103.369L257.861 103.076H258.154L258.691 103.369L258.984 103.662L259.277 103.906L259.863 104.199L260.107 104.492L260.693 104.785L260.986 105.078L261.572 105.322L261.816 105.615L262.402 105.908L262.695 106.201L263.232 106.494L263.525 106.787L263.818 107.031L264.404 107.324L264.648 107.617L265.234 107.91L265.527 108.203L266.064 108.496L266.357 108.789L266.943 109.033L267.236 109.326L267.822 109.619L268.066 109.912L268.652 110.205L268.945 110.449L269.238 110.742L269.775 111.035L270.068 111.328L270.654 111.621L270.947 111.865L271.484 112.158L271.777 112.451L272.363 112.744L272.607 113.037L273.193 113.33L273.486 113.574L273.779 113.867L274.316 114.16L274.609 114.453L275.195 114.746L275.488 114.99L276.025 115.283L276.318 115.576L276.904 115.869L277.148 116.162L277.734 116.406L278.027 116.748L278.564 116.992L278.857 117.285L279.15 117.578L279.736 117.822L280.029 118.164L280.566 118.408L280.859 118.701L281.445 118.994L281.689 119.287L282.275 119.58L282.568 119.824L283.154 120.117L283.447 120.41L283.691 120.703L284.277 120.996L284.57 121.289L285.107 121.533L285.4 121.826L285.986 122.119L286.279 122.412L286.816 122.705L287.109 122.949V123.535V123.828L287.402 124.707L287.695 125.537L287.988 126.66L288.232 127.539L288.525 128.662L288.818 129.492L289.111 130.371L289.404 131.494L289.648 132.324L289.941 133.496L290.234 134.326L290.527 135.205L290.82 136.328L291.064 137.207L291.357 138.33L291.65 139.16L291.943 140.039L292.236 141.162V142.871L291.943 143.75L291.65 144.58L291.357 145.166L291.064 145.996L290.82 146.826L290.527 147.705L290.234 148.535L289.941 149.414L289.648 150.244L289.404 150.83H288.818V151.367L288.525 151.709L287.695 151.953L286.816 152.246L285.693 152.539L284.863 152.832L283.984 153.125L282.861 153.369L282.031 153.662L281.152 153.955L280.273 154.248L279.15 154.541L278.32 154.785L277.441 155.078L276.611 155.371L275.488 155.664L274.609 155.957L273.779 156.25L272.607 156.494L271.777 156.787L270.947 157.08L270.068 157.373L268.945 157.666L268.066 157.91L267.236 158.203L266.357 158.496L265.234 158.789L264.404 159.082L263.525 159.326L262.695 159.668L261.572 159.912L260.693 160.205L259.863 160.498H259.277H258.984H258.691L257.861 160.205L257.031 159.912L256.152 159.668L255.322 159.326L254.443 159.082L253.906 158.789L253.027 158.496H250.195L247.9 158.789L245.947 159.082L243.945 159.326L241.943 159.668L239.99 159.912L237.988 160.205L235.986 160.498L233.984 160.742L232.031 161.084L229.736 161.328L227.734 161.621L225.732 161.914L223.779 162.207L221.777 162.5L219.775 162.744L217.822 163.037L215.82 163.33L213.525 163.623L211.572 163.916L209.57 164.209L207.568 164.453L205.566 164.746H203.564L203.027 164.453L202.49 164.209L201.904 163.916L201.318 163.623L200.732 163.33L200.195 163.037L199.609 162.744L199.072 162.5L198.486 162.207L197.607 161.914L197.07 161.621L196.484 161.328L195.947 161.084L195.361 160.742L194.824 160.498L194.287 160.205L193.701 159.912L193.115 159.668L192.578 159.326L191.992 159.082L191.455 158.789L190.576 158.496L190.039 158.203L189.453 157.91L188.867 157.666L188.281 157.373L187.744 157.08L187.158 156.787L186.621 156.494L186.035 156.25L185.449 155.957L184.912 155.664L184.326 155.371L183.496 155.078L182.91 154.785L182.324 154.541L181.787 154.248L181.201 153.955L180.615 153.662L180.078 153.369L179.492 153.125L178.955 152.832L178.369 152.539L177.783 152.246L175.83 151.953V150.83L176.074 149.414L176.367 147.705L176.66 145.996L176.953 144.58L177.246 142.871L177.539 141.162L177.783 139.746L178.076 138.037L178.369 136.328L178.662 134.619L178.955 133.203L179.199 131.494L179.492 129.785L179.785 128.369L180.078 126.66L180.371 124.951L180.615 123.242L180.908 121.826L181.201 120.117L181.494 118.408L181.787 116.992L182.08 115.283L182.324 113.574L182.617 111.865L182.91 110.449L183.203 108.789L183.496 107.031L183.74 105.322L184.033 103.906L184.326 102.246L184.619 100.537L184.912 98.8281L185.156 97.3633L185.449 95.7031L185.742 93.9941L186.035 92.5781L186.328 90.8691L186.621 89.1602L186.865 87.4512L187.158 85.7422L187.451 84.3262L187.744 82.6172L188.037 80.9082L188.281 79.1992L188.574 77.7832L188.867 76.0742L189.16 74.3652L189.453 72.6562L189.746 71.2891L190.039 69.5801L190.283 67.8223L190.576 66.1621L190.869 64.4531L191.162 62.7441L191.455 61.3281L191.699 59.6191L191.992 57.9102L192.285 56.2012L192.578 54.4922L192.871 52.7832L193.115 51.0742L193.408 49.3652L193.701 47.6562L193.994 45.7031L194.287 43.7012L194.58 41.4062L194.824 38.5742L195.068 35.4492L195.361 33.1543L195.654 32.3242L195.947 31.4453L196.191 30.6152L196.484 29.7852L196.777 29.1992L197.07 28.3691L197.363 27.4902L197.607 26.6602L197.9 25.7812L198.193 24.9023L198.486 24.0723L198.779 23.2422L199.072 22.3633L199.316 21.5332L199.609 20.9473L199.902 20.1172L200.195 19.2383L200.488 18.4082L200.732 17.5293L201.025 16.6992L201.318 15.8691L201.611 14.9902L201.904 14.1113L202.148 13.5742L202.49 12.6953L202.734 11.8652L203.027 10.9863L203.32 10.1562L203.564 9.32617L203.906 8.44727L204.15 7.56836L204.443 6.73828L204.736 5.9082L205.029 5.32227ZM335.938 102.832L306.934 114.697L322.656 70.7031L323.096 70.752L335.938 102.832ZM351.66 5.22461L299.609 15.2344C299.609 18.75 299.463 22.2656 299.17 25.7812C298.877 29.2969 298.779 32.7637 298.779 36.1816C298.779 37.9395 298.73 39.6973 298.633 41.5527C298.535 43.4082 298.242 44.9219 297.754 46.0938C297.168 47.4609 296.631 48.7793 296.143 50.0977C295.654 51.4648 295.166 52.7344 294.678 54.0039C292.578 59.2773 290.527 64.5508 288.477 69.7266C286.426 74.9023 284.375 80.127 282.324 85.3516C281.299 87.9883 280.273 90.5762 279.297 93.1152C278.271 95.7031 277.246 98.291 276.172 100.928C275.195 103.516 274.121 106.152 272.949 108.887C271.777 111.621 270.801 114.209 269.971 116.748C269.629 117.725 270.752 123.291 273.389 133.398C276.025 143.506 277.441 149.902 277.734 152.588L361.377 119.189C361.377 117.09 361.67 114.258 362.256 110.645C362.842 107.08 362.744 104.541 362.061 103.027C361.084 101.074 360.156 98.9746 359.229 96.6797C358.301 94.4336 357.471 92.2852 356.689 90.332C352.979 81.0547 349.414 72.5098 345.947 64.6973C344.873 62.3535 343.945 60.3027 343.262 58.4473C342.578 56.6895 342.236 55.5664 342.334 55.0781C342.432 54.5898 342.676 53.2715 343.115 51.123C343.604 48.6816 344.043 46.1914 344.531 43.6523C344.971 41.1133 345.459 38.5254 345.996 35.9863C346.484 33.5449 346.924 31.0059 347.412 28.4668C347.852 25.9277 348.34 23.3398 348.877 20.752C349.17 19.1895 349.707 16.5527 350.488 12.8906C351.27 9.27734 351.66 6.68945 351.66 5.22461ZM352.49 2.63672L353.809 2.34375H354.59V3.41797V3.71094L354.834 4.19922L355.078 4.73633L355.371 5.22461L355.615 5.81055L355.859 6.29883L356.152 6.83594L356.445 7.32422L356.689 7.86133L356.934 8.39844L357.178 8.93555L357.471 9.42383L357.715 9.96094L357.959 10.498L358.252 11.0352L358.496 11.5234L358.74 12.0605L359.033 12.5977L359.326 13.0859L359.57 13.623L359.814 14.1602L360.059 14.6973L360.352 15.1855L360.596 15.7227L360.84 16.2598L361.133 16.7969L361.377 17.2852L361.621 17.8223L361.914 18.3594L362.158 18.8477L362.451 19.3848L362.695 19.9219L362.939 20.459L363.232 20.9473L363.477 21.4844L363.721 22.0215L364.014 22.5586L364.258 23.0469L364.502 23.584L364.795 24.1211L365.039 24.6582L365.332 25.1465L365.576 25.9277L365.82 26.4648L366.113 27.002L366.357 27.5391L366.602 28.0273L366.895 28.5645L367.139 29.1016L367.383 29.5898L367.676 30.127L367.92 30.6641L368.213 31.2012L368.457 31.6895L368.701 32.2266L368.994 32.7637L369.238 33.3008L369.482 33.7891L369.775 34.3262L370.02 34.8633L370.264 35.3516L370.557 35.8887L370.801 36.4258L371.094 36.9629L371.338 37.4512L371.582 37.9883L371.875 38.5254L372.119 39.0625L372.363 39.5508L372.656 40.0879L372.9 40.625L373.145 41.1621L373.438 41.6504L373.682 42.1875V44.2871L373.438 45.6055L373.145 46.9238L372.9 48.4863L372.656 49.8047L372.363 51.0742L372.119 52.3926L371.875 53.9551L371.582 55.2734L371.338 56.5918L371.094 58.1543L370.801 59.4727L370.557 60.791L370.264 62.1094L370.02 63.6719L369.775 64.9902L369.482 66.3086L369.238 67.8223L368.994 69.1895L368.701 70.459L368.457 71.7773L368.213 73.3398L367.92 74.6582L367.676 75.9277L367.383 77.2461L367.139 78.8086L366.895 80.127L366.602 81.4453L366.357 83.0078V84.8633L366.602 85.6445L366.895 86.1816L367.139 86.9629L367.383 87.4512L367.676 87.9883L367.92 88.7695L368.213 89.3066L368.457 89.8438L368.701 90.625L368.994 91.1621L369.238 91.9434L369.482 92.4316L369.775 92.9688L370.02 93.75L370.264 94.2871L370.557 94.8242L370.801 95.6055L371.094 96.1426L371.338 96.9238L371.582 97.4121L371.875 97.9492L372.119 98.7305L372.363 99.2676L372.656 99.8047L372.9 100.586L373.145 101.074L373.438 101.611L373.682 102.393L373.975 102.93L374.219 103.711L374.463 104.248L374.756 104.785L375 105.566L375.244 106.055L375.537 106.592L375.781 107.373L376.025 107.91L376.318 108.691L376.562 109.229L376.855 109.766L377.1 110.547L377.344 111.035L377.637 111.572L377.881 112.354L378.125 112.891L378.418 113.428L378.662 114.209L378.906 114.697L379.199 115.527L379.443 116.016L379.736 116.553L379.98 117.334L380.225 117.871L380.518 118.408L380.762 119.189L381.006 119.678L381.299 120.508L381.543 120.996L381.787 121.533L382.08 122.314L382.324 122.803V124.902L382.08 127.539L381.787 130.176L381.543 132.52L381.299 135.156L381.006 135.938L380.762 136.182L380.518 136.719L380.225 136.963L379.736 137.256L378.906 137.5L378.418 137.744L377.637 138.037L377.1 138.281L376.318 138.525L375.781 138.818L375 139.062L374.463 139.307L373.682 139.6L373.145 139.844L372.363 140.137L371.875 140.381L371.094 140.625L370.557 140.918L369.775 141.162L369.238 141.406L368.457 141.699L367.92 141.943L367.139 142.188L366.602 142.48L365.82 142.725L365.332 143.018L364.502 143.262L364.014 143.506L363.232 143.799L362.695 144.043L361.914 144.287L361.377 144.58L360.596 144.824L360.059 145.117L359.326 145.361L358.74 145.605L357.959 145.898L357.471 146.143L356.689 146.387L356.152 146.68L355.371 146.924L354.834 147.168L354.053 147.461L353.564 147.705L352.734 147.998L352.246 148.242L351.465 148.486L350.928 148.779L350.098 149.023L349.609 149.268L348.828 149.561L348.291 149.805L347.51 150.049L346.973 150.342L346.191 150.586L345.703 150.879L344.922 151.123L344.385 151.367L343.604 151.66L343.066 151.904L342.285 152.148L341.748 152.441L341.211 152.686L340.43 152.93L339.941 153.223L339.111 153.467L338.623 153.76L337.842 154.004L337.305 154.248L336.523 154.541L335.986 154.785L335.205 155.029L334.668 155.322L333.887 155.566L333.35 155.811L332.568 156.104L332.08 156.348L331.299 156.641L330.762 156.885L329.98 157.129L329.443 157.422L328.662 157.666L328.125 157.91L327.344 158.203L326.807 158.447L326.025 158.691L325.537 158.984L324.707 159.229L324.219 159.521L323.438 159.766L322.9 160.01L322.119 160.303L321.582 160.547L320.801 160.791L320.264 161.084L319.482 161.328L318.945 161.621L318.164 161.865L317.676 162.109L316.895 162.402L316.357 162.646L315.576 162.891L315.039 163.184L314.258 163.428L313.721 163.672L312.939 163.965L312.402 164.209H310.84L309.814 163.965L308.74 163.672L307.715 163.428L306.641 163.184L305.859 162.891L304.834 162.646L303.76 162.402L302.734 162.109L301.66 161.865L300.635 161.621L299.854 161.328L298.779 161.084L297.754 160.791L296.729 160.547L295.654 160.303L294.629 160.01L293.848 159.766L292.773 159.521L291.748 159.229L290.723 158.984L289.648 158.691L288.623 158.447L287.842 158.203L286.816 157.91L285.791 157.666L284.717 157.422L283.691 157.129L282.617 156.885L281.836 156.641L280.811 156.348L279.736 156.104L278.711 155.811L277.637 155.566H276.611H276.074L275.83 154.785L275.537 153.76L275.293 152.441L275.049 151.367L274.756 150.049L274.512 149.023L274.268 147.705L273.975 146.68L273.73 145.605L273.438 144.287L273.193 143.262L272.949 141.943L272.656 140.918L272.412 139.844L272.168 138.525L271.875 137.5L271.631 136.182L271.387 135.156L271.094 133.838L270.85 132.764L270.557 131.738L270.312 130.42L270.068 129.395L269.775 128.076L269.531 127.051L269.287 125.684L268.994 124.658L268.75 123.633L268.506 122.314L268.213 121.289L267.969 119.971L267.676 118.896L267.432 117.871V116.553L267.676 116.016L267.969 115.234L268.213 114.697L268.506 113.916L268.75 113.428L268.994 112.646L269.287 112.109L269.531 111.328L269.775 110.791L270.068 110.01L270.312 109.473L270.557 108.691L270.85 107.91L271.094 107.373L271.387 106.592L271.631 106.055L271.875 105.273L272.168 104.785L272.412 104.004L272.656 103.467L272.949 102.686L273.193 102.148L273.438 101.367L273.73 100.83L273.975 100.049L274.268 99.2676L274.512 98.7305L274.756 97.9492L275.049 97.4121L275.293 96.6309L275.537 96.1426L275.83 95.3125L276.074 94.8242L276.318 94.043L276.611 93.5059L276.855 92.7246L277.148 92.1875L277.393 91.4062L277.637 90.625L277.93 90.0879L278.174 89.3066L278.418 88.7695L278.711 87.9883L278.955 87.4512L279.248 86.6699L279.492 86.1816L279.736 85.4004L280.029 84.8633L280.273 84.082L280.518 83.5449L280.811 82.7637L281.055 81.9824L281.299 81.4453L281.592 80.6641L281.836 80.127L282.129 79.3457L282.373 78.8086L282.617 78.0273L282.91 77.5391L283.154 76.7578L283.398 76.2207L283.691 75.4395L283.936 74.9023L284.18 74.1211L284.473 73.584L284.717 72.8027L285.01 72.0215L285.254 71.4844L285.498 70.7031L285.791 70.2148L286.035 69.4336L286.279 68.8965L286.572 68.1152L286.816 67.5781L287.061 66.7969L287.354 66.3086L287.598 65.4785L287.842 64.9902L288.086 64.209L288.33 63.4277L288.623 62.8906L288.867 62.1094L289.111 61.5723L289.404 60.791L289.648 60.2539L289.893 59.4727L290.186 58.9355L290.43 58.1543L290.723 57.666L290.967 56.8359L291.211 56.3477L291.504 55.5664L291.748 54.7852L291.992 54.248L292.285 53.4668L292.529 52.9297L292.773 52.1484L293.018 51.6113L293.311 50.8301L293.604 50.293L293.848 49.5117L294.092 48.9746L294.385 48.1934L294.629 47.7051L294.873 46.9238L295.166 46.0938L295.41 45.6055L295.654 44.8242L295.898 44.2871L296.191 42.9688L296.484 36.1816L296.729 29.3457L296.973 22.5586L297.266 15.7227L297.51 13.3789L297.998 13.0859L299.365 12.8418L300.635 12.5977L301.953 12.3047L303.271 12.0605L304.834 11.8164L306.152 11.5234L307.422 11.2793L308.74 11.0352L310.059 10.7422L311.621 10.498L312.939 10.2051L314.258 9.96094L315.576 9.7168L316.895 9.42383L318.457 9.17969L319.775 8.93555L321.045 8.64258L322.363 8.39844L323.682 8.10547L325.244 7.86133L326.562 7.61719L327.881 7.32422L329.199 7.08008L330.469 6.83594L332.08 6.54297L333.35 6.29883L334.668 6.05469L335.986 5.81055L337.305 5.51758L338.867 5.22461L340.186 4.98047L341.504 4.73633L342.822 4.44336L344.092 4.19922L345.703 3.95508L346.973 3.71094L348.291 3.41797L349.609 3.17383L350.928 2.92969L352.49 2.63672ZM390.283 58.8379L387.891 23.8281L411.963 26.3672L408.594 55.3223L390.283 58.8379ZM421.68 6.73828L372.021 13.3301L371.24 57.6172L367.09 62.3535L358.594 148.535L386.963 147.656C387.158 146.582 387.598 145.508 388.281 144.336C388.965 143.213 389.502 142.09 389.99 141.016C390.771 139.062 391.211 137.891 391.309 137.402C391.406 136.914 391.455 135.303 391.455 132.568C391.455 129.443 391.455 126.221 391.455 122.9C391.455 119.58 391.357 116.406 391.162 113.428C390.918 110.596 390.869 107.422 390.967 103.857C391.064 100.342 391.162 97.0703 391.162 94.043C391.162 90.918 391.113 87.7441 391.016 84.5215C390.918 81.2988 390.918 77.9297 390.967 74.5117L408.545 82.4707C408.545 86.1816 408.643 89.8438 408.936 93.5547C409.18 97.2656 409.326 100.928 409.326 104.639C409.277 108.154 409.375 111.865 409.57 115.771C409.766 119.678 409.912 123.438 410.107 127.051C410.156 129.297 410.791 130.518 412.061 130.713C412.939 130.908 413.77 131.055 414.551 131.201C415.283 131.348 416.162 131.494 417.139 131.641C418.701 131.934 420.361 132.227 422.119 132.568C423.877 132.959 425.586 133.252 427.246 133.545C428.906 133.936 430.566 134.229 432.227 134.521C433.887 134.814 435.596 135.156 437.354 135.449C438.818 135.742 440.527 136.133 442.48 136.523C444.434 136.963 446.094 137.207 447.559 137.305L431.689 68.1152L409.521 63.7207L427.002 55.0781L431.543 15.1367L421.68 6.73828ZM419.58 4.6875L421.68 4.44336H422.754L422.998 4.6875L423.535 4.98047L423.779 5.22461L424.072 5.46875L424.316 5.71289L424.561 5.95703L424.854 6.20117L425.098 6.44531L425.391 6.73828L425.635 6.98242L425.879 7.22656L426.416 7.4707L426.709 7.71484L426.953 8.00781L427.197 8.20312L427.49 8.49609L427.734 8.74023L427.979 8.98438L428.271 9.22852L428.516 9.47266L428.809 9.76562L429.297 10.0098L429.59 10.2539L429.834 10.498L430.127 10.7422L430.371 10.9863L430.615 11.2305L430.908 11.5234L431.152 11.7676L431.396 12.0117L431.689 12.2559L431.934 12.5L432.471 12.7441L432.715 12.9883L433.008 13.2812L433.252 13.5254L433.545 13.7695L433.789 14.0137L434.033 15.0391L434.326 16.0156L434.57 16.7969L434.814 17.5293L435.107 18.3105L435.352 19.043L435.645 19.8242L435.889 20.8496L436.133 21.582L436.426 22.3145L436.67 23.0957L436.963 23.8281L437.207 24.8535L437.451 25.5859L437.744 26.3672L437.988 27.0996L438.232 27.8809L438.525 28.8574L438.77 29.6387L439.062 30.3711L439.307 31.1523L439.551 31.8848L439.844 32.9102L440.088 33.6426L440.381 34.4238L440.625 35.1562L440.869 35.9375L441.162 36.6699L441.406 37.6953L441.65 38.4277L441.943 39.209L442.236 39.9414L442.48 40.7227L442.725 41.6992L442.969 42.4805L443.262 43.2129L443.506 43.9453L443.799 44.7266L444.043 45.752L444.336 46.4844L444.58 47.2656L444.824 47.998L445.068 48.7793L445.361 49.7559L445.654 50.5371L445.898 51.2695L446.143 52.0508L446.436 52.7832L446.68 53.5645L446.924 54.541L447.217 55.3223L447.461 56.0547V57.5684L447.217 60.1074L446.924 62.5977L446.68 64.8438L446.436 67.3828L446.143 69.6289L445.898 72.168L445.654 74.6582L445.361 76.9043L445.068 79.4434L444.824 81.6895L444.58 84.2285L444.336 86.7676L444.043 89.0137V90.0391L444.336 90.7715L444.58 91.3086L444.824 92.041L445.068 92.5293L445.361 93.0664L445.654 93.7988L445.898 94.2871L446.143 95.0684L446.436 95.5566L446.68 96.0449L446.924 96.8262L447.217 97.3145L447.461 98.0957L447.754 98.8281L447.998 99.8535L448.242 101.123L448.535 102.1L448.779 103.369L449.072 104.639L449.316 105.615L449.561 106.885L449.854 107.91L450.098 109.131L450.342 110.156L450.635 111.426L450.879 112.695L451.172 113.672L451.416 114.941L451.66 115.967L451.953 117.188L452.197 118.213L452.49 119.482L452.734 120.508L452.979 121.729L453.271 122.998L453.516 124.023L453.76 125.244L454.053 126.27L454.297 127.539L454.59 128.564L454.834 129.785L455.078 131.055L455.371 132.08L455.615 133.35L455.908 134.326L456.152 135.596L456.396 136.572L456.689 137.842L456.934 138.867L457.178 140.137L457.471 141.406L457.715 142.383L458.008 143.652L458.252 144.629L458.496 145.898L458.789 146.924L459.033 148.145L459.326 149.414L459.57 150.439L459.814 151.709L460.107 152.686L460.352 153.955L460.596 154.98V156.006L460.107 156.25L459.814 156.494L459.57 156.982H458.252L456.934 156.738L455.615 156.494L454.297 156.25L452.979 156.006L451.66 155.713L450.342 155.469L449.072 155.225L447.461 154.98L446.143 154.736L444.824 154.443L443.506 154.199L442.236 153.955L440.869 153.711L439.551 153.467L438.232 153.223L436.963 152.979L435.645 152.686L434.326 152.441L433.008 152.197L431.689 151.953L430.127 151.709L428.809 151.465L427.49 151.172L426.953 150.928L426.709 150.684L426.416 150.439L426.172 150.195L425.879 149.902L425.635 149.707L425.391 149.414L425.098 149.17L424.854 148.926L424.561 148.682L424.316 148.438L424.072 148.145L423.779 147.656L423.535 147.412L423.291 147.168L422.998 146.924L422.754 146.68L422.461 146.387L422.217 146.143L421.973 145.898L421.68 145.654L421.436 145.41L421.143 145.166L420.898 144.922L420.654 144.629L420.361 144.385L420.117 144.141L419.873 143.896L419.58 143.408L419.336 143.164L419.043 142.871L418.799 142.627L418.555 142.383L418.262 142.139L417.969 141.895L417.725 141.65L417.48 141.406L417.236 141.113L416.943 140.869L416.699 140.625L416.455 140.381L416.162 140.137L415.869 139.844L415.625 139.6L415.479 139.062L415.625 151.465V155.469L415.381 156.25L415.137 156.738L414.844 157.471L414.551 158.008L414.307 158.496L414.062 158.984L413.77 159.521L413.525 160.254L413.281 160.742L412.988 161.279L412.744 161.768L412.451 162.256L412.207 162.744L411.963 163.525L411.67 164.014L411.426 164.551L410.645 164.795L410.352 165.039L407.715 165.283L399.072 165.527L390.625 165.771H385.645L385.107 165.527L384.57 165.283L384.326 165.039L383.789 164.795L383.252 164.551L382.764 164.307L382.227 164.014L381.689 163.77L381.445 163.525L380.908 163.281L380.371 163.037L379.834 162.744L379.346 162.549L378.809 162.256L378.516 162.012L378.027 161.768L377.49 161.523L376.953 161.279L376.416 160.986L375.928 160.742L375.684 160.498L375.146 160.254L374.658 160.01L374.121 159.766L373.584 159.521L373.047 159.229L372.803 158.984L372.266 158.74L371.729 158.496L371.24 158.252L370.703 158.008L370.166 157.764L369.922 157.471L369.385 157.227L368.848 156.982L368.311 156.738L367.822 156.494L367.285 156.25L367.041 156.006L366.504 155.713L365.967 155.469L365.43 155.225L364.893 154.98L364.404 154.736L364.111 154.443L363.623 154.199L363.037 153.955L362.549 153.711L362.012 153.467L361.475 153.223L361.23 152.979L360.693 152.686L360.205 152.441L359.619 152.197L359.131 151.953L358.594 151.709L358.301 151.465L357.812 151.172L357.275 150.928L356.201 150.684V149.17L356.494 146.68L356.738 143.896L357.031 141.113L357.275 138.33L357.52 135.84L357.812 133.057L358.057 130.322L358.301 127.539L358.594 125L358.838 122.266L359.131 119.482L359.375 116.699L359.619 114.209L359.912 111.426L360.205 108.643L360.449 105.908L360.693 103.369L360.938 100.586L361.23 97.8027L361.475 95.0684L361.719 92.5293L362.012 89.7461L362.305 87.0117L362.549 84.2285L362.793 81.6895L363.037 78.9551L363.33 76.1719L363.623 73.3887L363.867 70.8984L364.111 68.1641L364.404 65.3809L364.648 62.5977L364.893 61.084L365.186 60.8398L365.43 60.3516L365.723 60.1074L365.967 59.8145L366.211 59.5703L366.504 59.3262L366.748 59.082L367.041 58.8379L367.285 58.5938L367.529 58.3496L367.822 57.8125L368.066 57.5684L368.311 57.3242L368.604 57.0801L368.848 56.7871L369.141 44.7266L369.385 30.127L369.629 15.5273L369.922 11.5234L370.166 11.2305L372.021 10.9863L373.877 10.7422L375.928 10.498L377.734 10.2539L379.59 10.0098L381.445 9.76562L383.545 9.47266L385.352 9.22852L387.207 8.98438L389.062 8.74023L391.162 8.49609L393.018 8.20312L394.873 8.00781L396.68 7.71484L398.779 7.4707L400.635 7.22656L402.49 6.98242L404.297 6.73828L406.445 6.44531L408.252 6.20117L410.107 5.95703L411.963 5.71289L414.062 5.46875L415.869 5.22461L417.725 4.98047L419.58 4.6875ZM536.67 89.209C535.791 88.1348 534.57 85.0098 533.008 79.834C531.445 74.6582 530.273 71.0449 529.59 69.0918C528.369 65.8691 527.197 62.5488 526.025 59.082L522.607 48.7305C522.021 47.0703 521.436 45.3613 520.947 43.6523C520.41 41.9922 519.824 40.2832 519.238 38.5742C518.848 37.6953 518.262 36.0352 517.432 33.4961C516.943 32.0801 516.65 31.1523 516.553 30.7617C516.455 30.3711 515.771 30.0293 514.404 29.6387C512.598 29.248 510.791 28.7598 508.984 28.2715C507.178 27.7832 505.42 27.2949 503.662 26.8066C502.588 26.5625 500.732 26.123 498.047 25.4395C495.312 24.8047 493.604 24.2676 492.822 23.877C493.848 28.125 495.166 33.4473 496.777 39.8438C497.168 41.4062 497.9 44.2383 498.975 48.2422C500.049 52.2949 500.635 54.9316 500.635 56.1035C500.635 57.373 500.342 59.3262 499.756 62.0605C499.17 64.7949 498.73 66.8945 498.438 68.3594C498.047 70.4102 497.656 72.4609 497.266 74.4141C496.875 76.3672 496.484 78.3691 496.094 80.4199C495.312 84.6191 494.58 88.7207 493.799 92.7246C493.018 96.7285 492.285 100.781 491.504 104.883C490.723 109.131 489.893 113.184 489.111 117.09C488.281 120.996 487.451 124.951 486.621 129.053C486.23 131.152 485.791 133.154 485.4 135.059C485.01 136.963 484.57 138.916 484.131 140.967C483.789 142.627 483.301 144.678 482.715 147.07C482.129 149.463 481.738 151.465 481.641 153.076L489.697 156.006C492.236 154.346 494.873 152.686 497.656 151.123C500.439 149.561 503.174 147.949 505.811 146.289C506.787 145.703 508.203 144.922 510.01 143.945C511.768 143.018 512.842 141.895 513.135 140.625C513.623 137.988 514.404 134.424 515.43 129.98C517.09 122.363 518.604 115.234 519.971 108.643C520.312 106.787 520.654 105.029 521.045 103.32C521.436 101.611 521.826 99.8047 522.217 97.9004C522.412 96.7285 522.852 94.9707 523.486 92.5293C524.121 90.1367 524.512 88.3301 524.658 87.1094L538.867 128.955L551.221 129.541L544.482 65.5762L575.439 151.025L599.023 154.004C599.414 154.102 601.562 152.1 605.469 148.096C609.375 144.092 611.768 141.748 612.744 141.064L573.975 58.7402L576.855 57.5684C576.416 55.8105 575.391 53.2227 573.73 49.8047C572.07 46.3867 570.85 43.6523 570.068 41.6016C569.629 40.625 568.457 37.793 566.504 33.0078C564.551 28.2715 563.33 25.8789 562.744 25.8789H556.982C556.738 24.9512 556.055 23.4863 554.932 21.4844C553.809 19.5312 552.979 17.9688 552.49 16.8457C551.953 15.8691 551.172 14.2578 550.195 12.0605C549.219 9.91211 548.193 8.64258 547.217 8.34961C543.555 7.42188 539.795 6.54297 535.986 5.71289C532.178 4.88281 528.418 4.00391 524.707 3.125L536.67 89.209ZM521.875 1.70898V0H522.705L523.877 0.244141L525.049 0.537109L526.465 0.830078L527.637 1.12305L528.809 1.41602L530.225 1.70898L531.348 2.00195L532.52 2.29492L533.984 2.58789L535.107 2.88086L536.279 3.125L537.695 3.41797L538.867 3.71094L540.283 4.00391L541.455 4.29688L542.627 4.58984L544.043 4.88281L545.166 5.17578L546.338 5.46875L547.803 5.76172L548.926 6.00586L550.098 6.29883L550.342 6.88477L550.684 7.17773L550.928 7.4707L551.221 7.76367L551.514 8.05664L551.807 8.34961L552.1 8.64258L552.393 8.88672L552.686 9.17969L552.979 9.47266L553.223 9.76562L553.564 10.0586L553.809 10.3516L554.102 10.6445L554.395 11.2305L554.688 11.4746L554.98 11.7676L555.273 12.0605L555.566 12.3535L555.859 12.6465L556.104 12.9395L556.445 13.2324L556.689 13.5254L556.982 13.8184L557.275 14.0625L557.568 14.3555L557.861 14.6484L558.154 14.9414L558.447 15.2344L558.74 15.5273L558.984 15.8203L559.326 16.1133L559.57 16.4062L559.863 16.9434L560.156 17.2363L560.449 17.5293L560.742 17.8223L561.035 18.1152L561.328 18.4082L561.621 18.7012L561.865 18.9941L562.158 19.2871L562.451 19.5801L562.744 19.8242L563.037 20.1172L563.33 20.4102L563.623 20.7031L563.916 20.9961L564.209 21.2891L564.502 21.582L564.746 21.875L565.039 22.4121L565.332 22.7051L565.625 22.998L565.918 23.291L566.211 23.584L566.504 23.877L566.797 24.1699L567.09 24.4629L567.383 24.7559L567.627 25.0488L567.92 25.293L568.213 25.5859L568.506 25.8789L568.799 26.1719L569.092 26.4648L569.385 26.7578L569.678 27.0508L569.922 27.3438L570.264 27.9297L570.508 28.1738L570.801 28.4668L571.094 28.7598L571.387 29.0527L571.68 29.3457L571.973 29.6387L572.266 29.9316L572.559 30.2246L572.803 30.5176L573.096 30.8105L573.389 31.0547L573.682 31.3477L573.975 31.6406L574.268 31.9336L574.561 32.2266L574.854 32.5195L575.146 32.8125L575.439 33.1055L575.684 33.6426L575.977 33.9355L576.27 34.2285L576.562 34.5215L576.855 34.8145L577.148 35.1074L577.441 35.4004L577.734 35.6934L578.027 35.9863L578.32 36.2305L578.564 36.5234L578.857 36.8164L579.15 37.1094L579.443 37.4023L579.736 37.6953L580.029 37.9883L580.322 38.2812L580.615 38.5742L580.908 39.1113L581.201 39.4043L581.445 39.6973L581.738 39.9902L582.031 40.2832L582.324 40.5762L582.617 40.8691L582.91 41.1621L583.203 41.4551L583.496 41.748L583.789 41.9922L584.033 42.2852L584.326 42.5781L584.619 42.8711L584.912 43.1641L585.205 43.457L585.498 43.75L585.791 44.3359L586.084 44.873L586.377 45.459L586.67 46.0449L586.914 46.3379L587.207 46.6309L587.5 47.2168L587.793 47.5098L588.086 47.7539L588.379 48.0469L588.672 48.3398L588.965 48.6328L589.258 48.9258L589.502 49.2188L589.795 49.5117L590.088 49.8047L590.381 50.0488L590.674 50.3906L590.967 50.6348L591.26 50.9277L591.553 51.2207L591.846 51.5137L592.139 51.8066L592.383 52.0996L592.676 52.3926L592.969 52.6855L593.262 52.9297L593.555 53.2227L593.848 53.8086L594.141 54.1016L594.434 54.3945L594.727 54.6875L595.02 54.9805L595.264 55.2734L595.557 55.5664L595.85 55.8105L596.143 56.1035L596.436 56.3965L596.729 56.6895L597.021 56.9824L597.314 57.2754L597.607 57.5684L597.852 58.1543L598.145 58.6914L598.438 59.5703L598.73 60.1562L599.023 61.0352L599.316 61.5723L599.609 62.1582L599.902 63.0371L600.195 63.623L600.488 64.209L600.732 65.0391L601.025 65.625L601.318 66.2109L601.611 67.0898L601.904 67.627L602.148 68.2129L602.441 69.0918L602.734 69.6289L603.027 70.2148L603.32 71.0938L603.613 71.6309L603.906 72.2168L604.199 73.0957L604.492 73.6816L604.785 74.5117L605.029 75.0977L605.322 75.6836L605.615 76.5625L605.908 77.1484L606.201 77.6855L606.494 78.5645L606.787 79.1504L607.08 79.6875L607.324 80.5664L607.666 81.1523L607.91 81.7383L608.203 82.5684L608.496 83.1543L608.789 83.7402L609.082 84.6191V84.8633H608.496V86.3281L607.91 86.6211H607.324L607.666 87.5L607.91 88.0859L608.203 88.623L608.496 89.209L608.789 89.7949L609.082 90.3809L609.375 90.9668L609.668 91.5039L609.961 92.3828L610.205 92.9688L610.547 93.5059L610.791 94.0918L611.084 94.6777L611.377 95.2637L611.67 95.8496L611.963 96.3867L612.256 96.9727L612.549 97.8516L612.842 98.4375L613.086 99.0234L613.428 99.6094L613.672 100.146L613.965 100.732L614.258 101.318L614.551 101.904L614.844 102.734L615.137 103.32L615.43 103.906L615.723 104.443L615.967 105.029L616.309 105.615L616.553 106.201L616.846 106.787L617.139 107.324L617.432 108.203L617.725 108.789L618.018 109.375L618.311 109.961L618.604 110.547L618.848 111.084L619.189 111.67L619.434 112.256L619.727 113.086L620.02 113.672L620.312 114.258L620.605 114.844L620.898 115.43L621.143 115.967L621.484 116.553L621.729 117.139L622.021 117.725L622.314 118.604L622.607 119.141L622.9 119.727L623.193 120.312L623.486 120.898L623.779 121.484L624.023 122.021L624.365 122.607L624.609 123.486L624.902 124.023L625.195 124.609L625.488 125.195L625.781 125.781L626.074 126.367L626.367 126.904L626.66 127.49L626.904 128.369L627.246 128.955L627.49 129.541L627.783 130.078L628.076 130.664L628.369 131.25L628.662 131.836L628.955 132.422L629.248 132.959L629.541 133.838L629.785 134.424L630.127 135.01L630.371 135.547L630.664 136.133L630.957 136.719L631.25 137.305L631.543 137.891L631.836 138.721L632.129 139.307L632.422 139.893L632.666 140.479L633.008 141.064L633.252 141.602L633.545 142.188L633.838 142.773L634.131 143.359L634.424 144.189L634.717 144.775L635.01 145.361L635.303 145.947L635.547 146.484L635.889 147.07L636.133 147.656L636.426 148.242L636.719 149.121L637.012 149.658L637.305 150.244L637.598 150.83V151.416L637.305 152.832L637.012 153.125L636.719 153.418L636.426 153.711L636.133 154.004L635.889 154.297L635.547 154.59L635.303 154.834L635.01 155.127L634.717 155.42L634.424 155.713L634.131 156.006L633.838 156.299L633.545 156.592L633.008 156.885L632.666 157.178L632.422 157.471L632.129 157.715L631.836 158.008L631.543 158.301L631.25 158.594L630.957 158.887L630.664 159.18L630.371 159.473L630.127 159.766L629.785 160.059L629.541 160.303L629.248 160.596L628.955 160.889L628.662 161.182L628.369 161.475L628.076 161.768L627.783 162.061L627.49 162.354L627.246 162.646L626.904 162.939L626.66 163.184L626.367 163.477L626.074 163.77L625.781 164.062L624.902 164.355H624.023L622.021 164.062L619.727 163.77L617.432 163.477L615.137 163.184L613.086 162.939L610.791 162.646L608.496 162.354L606.201 162.061L604.199 161.768L603.027 161.475L602.148 161.182L601.025 160.889L599.902 160.596L599.023 160.303L597.852 160.059L597.021 159.766L595.85 159.473L594.727 159.18L593.848 158.887L592.676 158.594L591.553 158.301L590.674 158.008L589.502 157.715L588.379 157.471L587.5 157.178L586.377 156.885L585.205 156.592L584.326 156.299L583.203 156.006L582.031 155.713L581.201 155.42L580.029 155.127L579.15 154.834L578.027 154.59L576.855 154.297L575.977 154.004L574.854 153.711L573.389 153.418L573.096 152.539L572.803 151.709L572.559 151.123L572.266 150.244L571.973 149.365L571.68 148.535L571.387 147.656L571.094 147.07L570.801 146.24L570.508 145.361L570.264 144.482L569.922 143.896L569.678 143.066L569.385 142.188L568.506 141.895L567.627 141.602L566.797 141.309L565.918 141.064L565.039 140.723L564.209 140.479L563.33 140.186L562.451 139.893L561.621 139.6L560.742 139.307L560.449 139.893L560.156 141.309L559.863 142.48L559.57 143.896L559.326 145.361L558.984 146.484L558.74 147.949L558.447 149.365L558.154 150.537L557.861 152.002L557.568 153.418H556.982V154.004L556.689 154.297L556.104 154.59L555.859 154.834L555.273 155.127L554.688 155.42L554.395 155.713L553.809 156.006L553.223 156.299L552.979 156.592L552.393 156.885L551.807 157.178L551.514 157.471L550.928 157.715L550.342 158.008L550.098 158.301L549.512 158.594L548.926 158.887L548.633 159.18L548.047 159.473L547.51 159.766L547.217 160.059L546.631 160.303L546.045 160.596L545.752 160.889L545.166 161.182L544.629 161.475L544.336 161.768L543.75 162.061L543.164 162.354L542.871 162.646L542.285 162.939L541.748 163.184L541.455 163.477L540.869 163.77L540.283 164.062L539.99 164.355L539.404 164.648L538.867 164.941L538.574 165.234L537.988 165.527L537.402 165.82H535.693L533.643 165.527L531.934 165.234L529.932 164.941L528.223 164.648L526.172 164.355L524.463 164.062L522.461 163.77L520.703 163.477L518.701 163.184L516.943 162.939L514.941 162.646L513.232 162.354L511.23 162.061L509.473 161.768L507.471 161.475L505.762 161.182L503.711 160.889L502.051 160.596L500.049 160.303L498.291 160.059L496.289 159.766L494.58 159.473L492.578 159.18L490.82 158.887L489.111 158.594L488.525 158.301L487.646 158.008L486.816 157.715L485.938 157.471L485.059 157.178L484.473 156.885L483.643 156.592L482.764 156.299L481.885 156.006L481.299 155.713L480.469 155.42L479.59 155.127L478.711 154.834V153.711L479.004 152.539L479.297 151.123L479.59 149.658L479.883 148.242L480.176 147.07L480.469 145.654L480.762 144.189L481.055 142.773L481.299 141.602L481.592 140.186L481.885 138.721L482.178 137.305L482.471 136.133L482.764 134.717L483.057 133.252L483.35 132.129L483.643 130.664L483.936 129.248L484.18 127.783L484.473 126.66L484.766 125.195L485.059 123.779L485.352 122.314L485.645 121.143L485.938 119.727L486.23 118.311L486.523 116.846L486.816 115.723L487.061 114.258L487.354 112.842L487.646 111.377L487.939 109.961L488.232 108.203L488.525 106.787L488.818 105.322L489.111 103.613L489.404 102.148L489.697 100.732L489.941 99.2676L490.234 97.5586L490.527 96.1426L490.82 94.6777L491.113 92.9688L491.406 91.5039L491.699 90.0879L491.992 88.3301L492.236 86.9141L492.578 85.4492L492.822 83.7402L493.115 82.3242L493.408 80.8594L493.701 79.1504L493.994 77.6855L494.287 76.2695L494.58 74.5117L494.873 73.0957L495.117 71.6309L495.41 69.9707L495.703 68.5059L495.996 67.0898L496.289 65.625L496.582 63.8672L496.875 62.4512L497.168 61.0352L497.461 59.2773L497.754 57.8613L497.998 56.3965V55.8105L497.754 54.6875L497.461 53.5156L497.168 52.3926L496.875 51.2207L496.582 50.0488L496.289 48.9258L495.996 47.7539L495.703 46.6309L495.41 45.459L495.117 44.3359L494.873 42.8711L494.58 41.748L494.287 40.5762L493.994 39.4043L493.701 38.2812L493.408 37.1094L493.115 35.9863L492.822 34.8145L492.578 33.6426L492.236 32.5195L491.992 31.3477L491.699 30.2246L491.406 29.0527L491.113 27.6367L490.82 26.4648L490.527 25.293L490.234 24.1699L489.941 22.998L489.697 21.875V20.4102H489.941L490.82 20.7031L491.992 20.9961L493.115 21.2891L494.287 21.582L495.41 21.875L496.289 22.168L497.461 22.4121L498.584 22.7051L499.756 22.998L500.879 23.291L501.758 23.584L502.881 23.877L504.004 24.1699L505.176 24.4629L506.006 24.7559L507.178 25.0488L508.35 25.293L509.473 25.5859L510.645 25.8789L511.523 26.1719L512.646 26.4648L513.818 26.7578L514.941 27.0508L516.113 27.3438L516.943 27.6367L518.115 27.9297L518.408 28.1738L518.701 28.4668L518.994 28.7598L519.58 29.0527L519.824 29.3457L520.166 29.6387L520.41 29.9316L520.996 30.2246L521.289 30.5176L521.582 30.8105L521.875 31.0547L522.461 31.3477L522.705 31.6406L523.047 31.9336L523.291 32.2266L523.877 32.5195L524.17 32.8125L524.463 33.1055L525.049 33.3984L525.342 33.6426L525.586 33.9355L525.928 34.2285L526.465 34.5703L526.172 32.8125L525.928 30.8105L525.586 28.7598L525.342 26.4648L525.049 24.4629L524.756 22.4121L524.463 20.4102L524.17 18.4082L523.877 16.4062L523.584 14.0625L523.291 12.0605L523.047 10.0586L522.705 8.05664L522.461 6.00586L522.168 3.71094L521.875 1.70898ZM672.754 79.8828L673.047 80.4688L673.34 80.7617L673.633 81.0547L673.926 81.6406L674.219 81.9336L674.512 82.2266L674.756 82.7637L675.098 83.0566L675.342 83.3496L675.635 83.9355L675.928 84.2285L676.221 84.8145L676.514 85.1074L676.807 85.4004L677.1 85.9863L677.393 86.2305L677.637 86.5234L677.979 87.1094L678.223 87.4023L678.516 88.2812L678.809 89.6973L679.102 90.2832L679.98 89.9902L680.566 89.6973L681.104 89.4043L681.982 89.1113L682.568 88.8672L683.154 88.5254L683.984 88.2812L684.57 87.9883L685.156 87.6953L686.035 87.4023L686.572 87.1094L687.158 86.8164L687.793 86.6699L686.914 86.5234L686.328 86.2305L686.035 85.9863L685.742 85.6445L685.449 85.4004L685.156 84.8145L684.863 84.5215L684.57 83.9355L684.277 83.6426L683.984 83.0566L683.74 82.5195L683.447 82.2266L682.275 81.9336L681.104 81.6406L679.688 81.3477L678.223 81.0547L676.807 80.7617L675.342 80.4688L673.926 80.1758L672.754 79.8828ZM626.953 147.9C629.395 146.631 631.982 145.068 634.814 143.311C637.646 141.553 640.283 139.893 642.725 138.33C647.51 135.352 652.783 132.178 658.545 128.809C659.326 128.32 661.426 127.1 664.795 125.146C668.164 123.193 671.68 121.143 675.391 118.896C679.102 116.65 682.422 114.6 685.352 112.695C688.281 110.84 689.795 109.668 689.795 109.277L689.697 88.623L641.895 109.326L637.305 80.3711L650.928 81.1035L655.273 76.709L651.172 55.9082L635.4 55.127L631.299 38.2812L666.797 45.6543L666.162 50.1953L677.979 53.7109C678.174 53.5645 679.297 52.1484 681.299 49.4629C683.252 46.7773 685.4 43.8477 687.646 40.7227C689.893 37.5977 691.992 34.7168 693.848 32.0801C695.703 29.4434 696.68 28.125 696.68 28.0762C696.68 27.6855 695.898 26.4648 694.434 24.4141C692.92 22.3633 691.992 21.0449 691.602 20.459C690.82 19.2871 689.355 18.6035 687.305 18.4082C685.254 18.2129 683.398 17.9199 681.787 17.627C678.174 17.041 674.512 16.4551 670.801 15.8203C667.09 15.1855 663.428 14.5508 659.814 13.9648C658.35 13.7695 655.371 13.3301 650.879 12.6465C646.387 11.9629 641.65 11.1816 636.67 10.3516C631.689 9.57031 627.197 8.78906 623.096 8.00781C618.994 7.27539 616.65 6.73828 616.064 6.44531C615.381 6.93359 614.551 7.8125 613.574 8.98438C612.598 10.2051 611.768 11.1816 611.084 11.8652C610.059 12.9883 609.277 13.9648 608.74 14.7461C608.154 15.5762 608.008 17.1387 608.301 19.3848C608.594 22.3145 608.838 25.5859 609.033 29.2969C609.18 33.0078 609.326 36.377 609.424 39.3066C609.521 42.7246 609.717 46.0938 609.961 49.4629C610.156 52.8809 610.254 56.2012 610.254 59.4727C610.254 61.8164 610.352 65.2344 610.547 69.6289C610.742 74.0234 611.035 77.2949 611.377 79.3945C611.572 80.4688 611.67 82.1289 611.67 84.375C611.67 86.6211 611.719 88.2812 611.719 89.4043C611.719 91.0645 611.816 92.7246 612.012 94.4824C612.207 96.2402 612.305 97.9004 612.305 99.5117C612.305 102.881 612.402 106.25 612.695 109.57C612.988 112.891 613.135 116.26 613.135 119.678C613.135 121.924 613.232 125.293 613.477 129.785C613.672 134.326 613.965 137.598 614.258 139.6C614.746 142.627 614.746 144.238 614.258 144.385C613.77 144.58 615.186 145.02 618.457 145.752C619.922 146.143 621.387 146.484 622.754 146.875C624.121 147.266 625.488 147.607 626.953 147.9ZM672.754 79.8828V79.6387L672.412 79.8828H672.754ZM614.307 4.15039L614.6 3.85742H615.723L617.48 4.15039L619.189 4.44336L620.947 4.73633L622.656 5.0293L624.414 5.32227L626.074 5.56641L627.832 5.9082L629.541 6.15234L631.25 6.44531L633.008 6.73828L634.424 7.03125L636.133 7.32422L637.891 7.61719L639.6 7.91016L641.357 8.20312L643.066 8.44727L644.824 8.78906L646.533 9.0332L648.291 9.32617L650 9.61914L651.758 9.91211L653.467 10.2051L655.176 10.498L656.934 10.7422L658.643 11.084L660.352 11.3281L662.109 11.6699L663.818 11.9141L665.576 12.207L666.992 12.5L668.75 12.793L670.459 13.0859L672.217 13.3789L673.926 13.623L675.635 13.9648L677.393 14.209L679.102 14.5508L680.859 14.7949L682.568 15.0879L684.277 15.3809L686.035 15.6738L687.744 15.9668L689.453 16.2598L691.211 16.5527L692.09 16.8457L692.334 17.0898L692.676 17.3828L692.92 17.9688L693.213 18.2617L693.506 18.5547L693.799 19.1406L694.092 19.4336L694.385 19.9707L694.678 20.2637L694.971 20.5566L695.215 21.1426L695.557 21.4355L695.801 22.0215L696.094 22.3145L696.387 22.6074L696.68 23.1445L696.973 23.4375L697.266 24.0234L697.559 24.3164L697.852 24.6094L698.145 25.1953L698.438 25.4883L698.682 26.0254L698.975 26.3184L699.268 26.9043L699.561 27.1973L699.854 27.4902L700.146 28.6621L700.439 29.1992L700.732 30.0781L701.025 30.6641L701.318 31.543L701.562 32.1289L701.855 32.959L702.148 33.5449L702.441 34.4238L702.734 35.0098L703.027 35.8398L703.32 36.4258L703.613 37.3047L703.906 37.8906L704.199 38.7207L704.492 39.3066L704.736 39.8438L705.029 40.7227L705.322 41.3086L705.615 42.1875L705.908 42.7734L706.201 43.6035L706.494 44.1895L706.787 45.0684L707.08 45.6543L707.373 46.4844L707.617 47.0703L707.91 47.9492L708.203 48.5352L708.496 49.3652L708.789 49.9512L709.082 50.8301L709.375 51.416L709.668 52.2461L709.912 52.832L710.254 53.7109L710.498 54.2969L710.84 55.127L711.084 55.7129L711.377 56.5918L711.67 57.1777L711.963 58.0078L712.256 58.5938L712.549 59.1797L712.793 60.0586L713.135 60.6445L713.379 61.4746L713.672 62.0605L713.965 62.9395L714.258 63.5254L714.551 64.3555L714.844 64.9414L715.137 65.8203V67.5293L714.844 67.8223L714.551 68.1152L714.258 68.7012L713.965 68.9941L713.672 69.5312L713.379 69.8242L713.135 70.1172L712.793 70.7031L712.549 70.9961L712.256 71.2891L711.963 71.8262L711.67 72.1191L711.377 72.7051L711.084 72.998L710.84 73.291L710.498 73.8281L710.254 74.1699L709.912 74.707L709.668 75L709.375 75.293L709.082 75.8789L708.789 76.1719L708.496 76.709L708.203 77.0508L707.91 77.2949L707.617 77.8809L707.373 78.1738L707.08 78.4668L706.787 79.0527L706.494 79.3457L706.201 79.8828L705.908 80.1758L705.615 80.4688L705.322 81.0547L705.029 81.3477L704.736 81.9336L704.492 82.2266L704.199 82.5195L703.906 83.0566L703.613 83.3496L703.32 83.9355L703.027 84.2285L702.734 84.5215L702.441 85.1074L702.148 85.4004L701.855 85.6445L701.562 86.2305L701.318 86.5234L701.025 87.1094L700.732 87.4023L700.439 87.6953L700.146 88.2812L699.854 88.5254L699.561 89.1113L698.438 89.4043L698.145 89.6973H697.559L696.68 89.4043L695.557 89.1113L694.678 88.8672H693.799L694.092 89.1113L694.385 89.6973L694.678 90.2832L694.971 90.5762L695.215 91.1621L695.557 91.4062L695.801 91.9922L696.094 92.2852L696.387 92.8711L696.68 93.457L696.973 93.75L697.266 94.2871L697.559 94.6289L697.852 95.166L698.145 95.459L698.438 96.0449L698.682 96.6309L698.975 96.9238L699.268 97.5098L699.561 97.7539L699.854 98.3398L700.146 98.6328L700.439 99.2188L700.732 99.8047L701.025 100.049L701.318 100.635L701.562 100.928L701.855 101.514L702.148 101.807L702.441 102.393L702.734 102.93L703.027 103.223L703.32 103.809L703.613 104.102L703.906 104.688L704.199 105.273L704.492 105.566L704.736 106.104L705.029 106.396L705.322 106.982L705.615 107.275L705.908 107.861L706.201 108.447L706.494 108.74L706.787 109.277L707.08 109.57L707.373 110.156L707.617 110.449L707.91 111.035L708.203 111.621L708.496 111.865L708.789 112.451L709.082 112.744L709.375 113.623V132.91L709.082 133.203L708.789 134.082L708.203 134.375L707.91 134.668L707.373 134.961L706.787 135.205L706.494 135.498L705.908 135.791L705.322 136.084L705.029 136.377L704.492 136.67L703.906 136.963L703.613 137.256L703.027 137.549L702.441 137.842L702.148 138.086L701.562 138.379L701.025 138.672L700.732 138.965L700.146 139.258L699.561 139.551L699.268 139.844L698.682 140.137L698.145 140.43L697.852 140.723L697.266 140.967L696.973 141.309L696.387 141.553L695.801 141.846L695.557 142.139L694.971 142.432L694.385 142.725L694.092 143.018L693.506 143.311L692.92 143.604L692.676 143.848L692.09 144.189L691.504 144.434L691.211 144.727L690.625 145.02L690.039 145.312L689.795 145.605L689.209 145.898L688.623 146.143L688.33 146.484L687.744 146.729L687.158 147.07L686.914 147.314L686.328 147.607L685.742 147.9L685.449 148.193L684.863 148.486L684.57 148.779L683.984 149.072L683.447 149.365L683.154 149.609L682.568 149.902L681.982 150.195L681.689 150.488L681.104 150.781L680.566 151.074L680.273 151.367L679.688 151.66L679.102 151.953L678.809 152.246L678.223 152.49L677.637 152.783L677.393 153.076L676.807 153.369L676.221 153.662L675.928 153.955L675.342 154.248L674.756 154.541L674.512 154.834L673.926 155.127L673.34 155.371L673.047 155.664L672.461 155.957L671.875 156.25L671.631 156.543L671.045 156.836L670.752 157.129L670.166 157.422L669.58 157.715L669.336 158.008L668.75 158.301L668.164 158.545L667.871 158.838L667.285 159.131L666.699 159.424L666.406 159.717L665.869 160.01L665.283 160.303L664.99 160.596L664.404 160.889L663.818 161.182L663.525 161.426L662.988 161.719L662.402 162.012L662.109 162.305L661.523 162.598L660.938 162.891L660.645 163.184L660.059 163.477L659.521 163.77L659.229 164.062L658.643 164.307L658.057 164.6L657.764 164.893H656.055L654.883 164.6L653.76 164.307L652.588 164.062L651.416 163.77L650.293 163.477L649.121 163.184L647.998 162.891L646.533 162.598L645.41 162.305L644.824 162.012L644.238 161.719L643.652 161.426L643.066 161.182L642.236 160.889L641.65 160.596L641.064 160.303L640.479 160.01L639.893 159.717L639.355 159.424L638.77 159.131L637.891 158.838L637.305 158.545L636.719 158.301L636.133 158.008L635.596 157.715L635.01 157.422L634.18 157.129L633.594 156.836L633.008 156.543L632.422 156.25L631.836 155.957L631.25 155.664L630.713 155.371L629.834 155.127L629.248 154.834L628.662 154.541L628.076 154.248L627.539 153.955L626.953 153.662L626.367 153.369L625.488 153.076L624.902 152.783L624.414 152.49L623.828 152.246L623.242 151.953L622.656 151.66L621.826 151.367L621.24 151.074L620.654 150.781L620.068 150.488L619.482 150.195L618.945 149.902L618.359 149.609L617.48 149.365L616.895 149.072L616.309 148.779L615.723 148.486L615.186 148.193L614.6 147.9L614.014 147.607L613.184 147.314L612.598 147.07L612.012 146.729L611.719 142.139L611.426 136.084L611.133 130.322L610.84 124.268L610.547 118.506L610.303 112.451L609.961 106.396L609.717 100.635L609.424 94.6289L609.131 88.8672L608.838 82.7637L608.545 76.709L608.252 70.9961L607.959 64.9414L607.666 58.8867L607.373 53.125L607.129 47.0703L606.836 41.3086L606.543 35.2539L606.25 29.1992L605.957 23.4375L605.664 17.3828V14.209L605.957 13.9648L606.25 13.3789L606.543 13.0859L606.836 12.793L607.129 12.5L607.373 12.207L607.666 11.9141L607.959 11.6699L608.252 11.084L608.545 10.7422L608.838 10.498L609.131 10.2051L609.424 9.91211L609.717 9.61914L609.961 9.0332L610.303 8.78906L610.547 8.44727L610.84 8.20312L611.133 7.91016L611.426 7.61719L611.719 7.03125L612.012 6.73828L612.305 6.44531L612.598 6.15234L612.842 5.9082L613.184 5.56641L613.428 5.32227L613.721 4.73633L614.014 4.44336L614.307 4.15039ZM685.352 64.5508C685.352 64.6484 687.012 68.0664 690.381 74.8047C693.701 81.543 695.654 85.3516 696.143 86.2305L754.053 85.8398C753.955 86.0352 752.686 87.0117 750.293 88.7207C747.852 90.4785 745.215 92.334 742.383 94.3359C739.551 96.3379 736.914 98.1445 734.521 99.8047C732.129 101.465 730.957 102.246 730.957 102.197C730.273 102.148 729.59 101.318 728.906 99.707C728.223 98.0957 727.686 97.2656 727.295 97.168C726.416 97.0703 722.559 97.5098 715.771 98.4863C708.936 99.4629 705.322 100.098 704.834 100.391L694.336 132.91L714.746 146.24C715.625 145.801 717.09 144.824 719.092 143.262C721.094 141.748 722.607 140.576 723.584 139.795C724.951 138.721 726.416 137.646 727.881 136.572C729.346 135.498 730.859 134.375 732.324 133.252C733.203 132.568 734.717 131.494 736.914 130.029C739.111 128.564 740.527 127.49 741.162 126.807C743.408 124.268 745.85 121.533 748.486 118.506C753.955 112.256 758.887 106.787 763.379 102.1C765.723 99.6582 768.457 97.2168 771.582 94.7754C774.707 92.334 777.344 89.8438 779.541 87.3047C779.736 85.2539 779.932 83.3496 780.078 81.5918C780.176 79.834 780.371 77.9297 780.664 75.9277C781.055 72.7539 781.201 70.9473 781.152 70.459C781.104 69.9707 779.443 69.7754 776.172 69.8242C774.609 69.9219 772.803 69.9219 770.703 69.7754C768.555 69.6777 766.797 69.5312 765.332 69.4336C763.574 69.3359 761.67 69.2871 759.717 69.2871C757.764 69.2871 756.006 69.1406 754.443 68.9453C750.928 68.5547 747.266 68.4082 743.457 68.5059C739.648 68.6035 736.084 68.3594 732.666 67.8711C729.297 67.4805 725.684 67.334 721.875 67.4316C718.018 67.5293 714.355 67.2852 710.84 66.7969L749.512 40.0879L746.387 60.2051L767.627 57.9102L775.195 16.3086L763.184 17.8711L761.963 7.08008C760.547 7.08008 758.35 7.37305 755.371 7.95898C752.344 8.59375 750.098 9.0332 748.535 9.22852C747.363 9.42383 746.24 9.61914 745.166 9.81445C744.092 10.0098 743.018 10.2051 741.943 10.3027C741.016 10.4492 740.137 10.9863 739.355 11.8652C738.574 12.793 737.842 13.5254 737.207 14.1113C734.229 16.7969 731.299 19.5801 728.418 22.4609C725.488 25.3418 722.656 28.1738 719.824 30.9082C718.945 31.7871 716.65 33.9844 712.988 37.5C709.277 41.0156 705.42 44.7266 701.318 48.6328C697.217 52.5391 693.555 56.1035 690.283 59.3262C687.012 62.5488 685.352 64.2578 685.352 64.5508ZM762.305 4.24805L763.184 4.05273L764.062 4.19922L764.16 5.32227L764.404 5.66406L764.648 6.25L764.844 6.88477L765.088 7.4707L765.283 7.76367L765.527 8.39844L765.723 8.98438L765.967 9.61914L766.211 9.91211L766.406 10.5469L766.602 11.1328L766.846 11.7188L767.09 12.0605L767.285 12.6465L767.48 13.2324L767.773 13.5742L767.969 14.1602L767.92 14.7461L768.799 14.5508L769.678 14.4043L770.85 14.2578L772.021 14.1113L773.193 13.9648L774.365 13.8184L775.537 13.6719L776.416 13.5254L777.588 13.3789L778.418 13.4766L778.32 14.3066L778.223 14.8926L778.467 15.4785L778.662 16.0645L778.906 16.4062L779.15 17.041L779.346 17.627L779.541 18.2129L779.785 18.8477L779.98 19.4336L780.225 20.0195L780.42 20.6055L780.615 21.2402L780.859 21.8262L781.055 22.4609L781.299 22.7539L781.494 23.3887L781.738 23.9746L781.934 24.5605L782.129 25.1465L782.373 25.7812L782.568 26.3672L782.764 27.002L783.008 27.5879L783.203 28.1738L783.447 28.8086L783.643 29.1016L783.887 29.6875L784.082 30.3223L784.326 30.9082L784.521 31.4941L784.717 32.1289L784.961 32.7148L785.156 33.3496L785.352 33.9355L785.596 34.5215L785.84 34.8633L786.035 35.4492L786.23 36.0352L786.475 36.6699L786.67 37.2559L786.865 37.8906L787.109 38.4766L787.305 39.0625L787.5 39.6484L787.744 40.2832L787.939 40.8691L788.184 41.2109L788.428 41.7969L788.623 42.3828L788.867 43.0176L789.062 43.6035L789.258 44.1895L789.502 44.8242L789.697 45.4102L789.893 45.9961L790.088 46.6309L790.381 46.9238L790.576 47.5098L790.771 48.1445L791.016 48.7305L791.211 49.3652L791.406 49.9512L791.65 50.5371L791.846 51.123L792.041 51.7578L792.285 52.3438L792.48 52.9785L792.725 53.2715L792.92 53.9062L793.164 54.4922L793.359 55.0781L793.604 55.6641L793.799 56.2988L793.994 56.8848L794.238 57.5195L794.385 58.3984L794.287 59.2285L793.408 64.0137L792.48 68.7988L791.602 73.584L790.723 78.6133L790.283 82.0312L790.479 82.6172L790.674 83.2031L790.967 83.5449L791.162 84.1309L791.406 84.4727L791.602 85.1074L791.846 85.6934L792.041 85.9863L792.285 86.6211L792.529 86.9141L792.725 87.5488L792.969 88.1348L793.213 88.4277L793.408 89.0625L793.652 89.3555L793.896 89.9902L794.092 90.5762L794.336 90.8691L794.531 91.5039L794.824 91.7969L795.02 92.3828L795.215 93.0176L795.459 93.3594L795.703 93.9453L795.947 94.2871L796.143 94.873L796.387 95.459L796.582 95.8008L796.826 96.3867L797.07 96.7285L797.266 97.3145L797.461 97.9004L797.754 98.2422L797.949 98.8281L798.193 99.1699L798.389 99.7559L798.633 100.342L798.877 100.684L798.975 102.148L798.047 111.816L797.412 116.895L797.021 117.725L796.68 117.969L796.338 118.506L796.045 118.75L795.703 118.994L795.361 119.238L795.068 119.482L794.727 119.727L794.385 120.264L794.043 120.508L793.75 120.752L793.457 120.996L793.115 121.289L792.822 121.484L792.432 122.07L792.139 122.266L791.797 122.51L791.504 122.803L791.162 123.047L790.82 123.584L790.479 123.828L790.186 124.023L789.844 124.316L789.502 124.561L789.209 124.805L788.867 125.342L788.525 125.586L788.232 125.83L787.891 126.074L787.598 126.318L787.256 126.562L786.914 127.1L786.572 127.344L786.279 127.588L785.938 127.832L785.645 128.076L785.303 128.613L784.961 128.857L784.668 129.15L784.326 129.346L783.984 129.59L783.691 129.883L783.301 130.371L783.008 130.664L782.666 130.908L782.324 131.445L781.982 131.689L781.689 131.885L781.348 132.471L781.006 132.666L780.664 133.203L780.322 133.447L779.98 133.984L779.688 134.229L779.297 134.766L779.004 135.01L778.662 135.547L778.32 135.791L778.027 136.084L777.637 136.572L777.344 136.816L776.953 137.354L776.66 137.598L776.318 138.135L775.977 138.379L775.635 138.916L775.293 139.16L774.951 139.697L774.609 139.941L774.316 140.186L773.975 140.723L773.633 140.967L773.291 141.504L772.949 141.748L772.607 142.285L772.266 142.529L771.924 143.066L771.582 143.311L771.24 143.848L770.947 144.092L770.605 144.336L770.264 144.873L769.922 145.117L769.58 145.654L769.287 145.898L768.945 146.436L768.604 146.68L768.262 147.217L767.92 147.461L767.578 147.998L767.236 148.242L766.943 148.486L766.553 149.023L766.26 149.268L765.918 149.805L765.576 150.049L764.99 150.244L764.648 150.488L764.355 150.732L764.014 151.025L763.721 151.27L763.379 151.465L763.086 151.758L762.744 152.002L762.402 152.246L762.109 152.49L761.768 152.734L761.475 152.979L761.133 153.223L760.84 153.467L760.498 153.711L760.205 153.955L759.863 154.248L759.521 154.443L759.229 154.688L758.887 154.98L758.594 155.225L758.008 155.42L757.666 155.664L757.324 155.908L757.031 156.152L756.689 156.396L756.396 156.689L756.055 156.885L755.762 157.178L755.42 157.422L755.127 157.666L754.785 157.91L754.492 158.154L754.15 158.398L753.857 158.643L753.516 158.887L753.223 159.131L752.881 159.375L752.588 159.619L752.246 159.863L751.904 160.107L751.611 160.4L751.025 160.596L750.684 160.84L750.342 161.084L750.049 161.328L749.707 161.572L749.414 161.816L749.072 162.109L748.779 162.305L748.438 162.549L748.145 162.842L747.803 163.086L747.461 163.33L747.168 163.574L746.826 163.818L746.533 164.062L746.191 164.307L745.898 164.551L745.557 164.795L745.264 165.039L744.922 165.283L744.58 165.527L743.701 165.723L742.578 165.576L741.797 165.186L741.26 164.844L740.723 164.502L739.893 164.062L739.355 163.721L738.818 163.379L738.037 162.988L737.5 162.646L736.963 162.305L736.133 161.865L735.596 161.523L735.107 161.182L734.277 160.791L733.74 160.449L733.203 160.107L732.373 159.668L731.836 159.326L731.348 158.984L730.518 158.594L729.98 158.203L729.443 157.91L728.613 157.471L728.076 157.129L727.588 156.787L726.758 156.396L726.221 156.006L725.684 155.664L724.854 155.273L724.316 154.932L723.779 154.59L722.998 154.199L722.461 153.809L721.924 153.467L721.094 153.076L720.605 152.734L720.02 152.393L719.238 152.002L718.701 151.611L718.164 151.27L717.334 150.879L716.846 150.537L716.26 150.195L715.479 149.805L714.941 149.414L714.404 149.072L713.867 148.73L713.33 148.389L712.793 147.998L712.012 147.607L711.475 147.266L710.938 146.924L710.4 146.582L709.863 146.191L709.326 145.85L708.789 145.508L708.301 145.166L707.764 144.775L707.275 144.434L706.738 144.092L706.201 143.75L705.664 143.359L705.127 143.018L704.59 142.676L704.053 142.285L703.516 141.943L703.027 141.602L702.49 141.26L701.66 140.869L701.123 140.479L700.586 140.137L700.049 139.795L699.512 139.404L698.975 139.062L698.486 138.721L697.949 138.379L697.412 137.988L696.875 137.646L696.338 137.305L695.801 136.963L695.264 136.572L694.775 136.23L694.189 135.889L693.701 135.547L693.164 135.156L692.627 134.814L692.09 134.473L691.553 134.131L691.797 132.422L692.236 131.006L692.676 129.639L693.164 128.271L693.652 126.611L694.092 125.244L694.58 123.828L695.068 122.168L695.557 120.801L695.996 119.385L696.484 117.725L696.973 116.357L697.412 114.99L697.852 113.623L698.389 111.914L698.828 110.547L699.316 109.18L699.805 107.52L700.293 106.104L700.732 104.736L701.172 103.369L701.709 101.709L702.148 100.293L702.637 98.9258L703.027 97.8027L703.613 97.6074L704.492 97.7051L704.541 97.168L704.004 97.0703L703.76 96.7773L703.223 96.3867L702.979 96.0938L702.734 95.8008L702.197 95.4102L701.953 95.1172L701.416 94.7266L701.172 94.4336L700.635 94.043L700.391 93.75L699.854 93.4082L699.609 93.0664L699.072 92.7246L698.828 92.3828L698.291 92.041L698.047 91.748L697.803 91.4062L697.266 91.0645L697.021 90.7227L696.484 90.3809L696.24 90.0879L695.703 89.6973L695.459 89.4043L694.922 89.0625L694.385 88.6719L694.141 88.3789L693.945 87.7441L693.652 87.4512L693.457 86.8652L693.213 86.5234L693.018 85.9375L692.773 85.5957L692.529 85.0098L692.285 84.668L692.09 84.082L691.895 83.4473L691.65 83.1543L691.406 82.5684L691.162 82.2266L690.967 81.6406L690.723 81.2988L690.479 80.7129L690.234 80.3711L690.039 79.7852L689.795 79.4434L689.551 78.8574L689.307 78.5645L689.111 77.9297L688.867 77.6367L688.672 77.0508L688.379 76.709L688.184 76.123L687.939 75.7812L687.744 75.1953L687.451 74.8535L687.256 74.2676L687.012 73.9258L686.816 73.3398L686.572 72.998L686.328 72.4121L686.133 71.8262L685.889 71.4844L685.693 70.8984L685.449 70.6055L685.205 69.9707L684.961 69.6777L684.766 69.043L684.521 68.75L684.277 68.1641L684.033 67.8223L683.838 67.2363L683.594 66.8945L683.35 66.3086L683.154 65.9668L682.91 65.3809L682.666 65.0879L682.471 64.4531L682.227 64.1602L682.324 63.2812L682.617 63.0371L682.959 62.793L683.252 62.5488L683.594 62.3047L683.936 61.7676L684.229 61.5234L684.57 61.2793L684.912 61.0352L685.254 60.498L685.596 60.2539L685.889 60.0098L686.23 59.7656L686.572 59.2285L686.914 58.9844L687.207 58.7402L687.549 58.4473L687.891 57.959L688.184 57.666L688.525 57.4707L688.818 57.2266L689.209 56.6895L689.502 56.4453L689.844 56.1523L690.137 55.9082L690.527 55.3711L690.82 55.127L691.162 54.8828L691.455 54.6387L691.797 54.3945L692.139 53.8574L692.432 53.6133L692.773 53.3691L693.115 53.125L693.457 52.5879L693.75 52.3438L694.092 52.0996L694.434 51.8555L694.775 51.3184L695.068 51.0742L695.41 50.8301L695.703 50.5859L696.094 50.0488L696.387 49.8047L696.729 49.5605L697.021 49.3164L697.412 48.7793L697.705 48.5352L698.047 48.2422L698.34 48.0469L698.682 47.8027L699.023 47.2656L699.316 47.0215L699.658 46.7285L699.951 46.4844L700.342 45.9473L700.635 45.7031L700.977 45.5078L701.27 45.2148L701.66 44.7266L701.953 44.4336L702.295 44.1895L702.637 43.9453L702.93 43.4082L703.271 43.1641L703.613 42.9199L703.906 42.6758L704.297 42.1387L704.59 41.8945L704.932 41.6504L705.225 41.4062L705.566 41.1621L705.908 40.625L706.25 40.3809L706.543 40.1367L706.885 39.8926L707.227 39.3555L707.52 39.1113L707.812 38.8672L708.105 38.623L708.496 38.0859L708.789 37.8418L709.131 37.5977L709.424 37.3047L709.814 36.8164L710.107 36.5723L710.449 36.3281L710.742 36.084L711.084 35.5469L711.426 35.3027L711.768 35.0098L712.061 34.7656L712.402 34.2285L712.744 33.9844L713.086 33.7891L713.379 33.4961L713.721 33.252L714.062 32.7148L714.355 32.4707L714.697 32.2266L714.99 31.9824L715.381 31.4453L715.674 31.2012L716.016 30.957L716.309 30.7129L716.699 30.1758L716.992 29.9316L717.334 29.6875L717.627 29.4434L717.969 28.9062L718.311 28.6621L718.604 28.418L718.945 28.1738L719.287 27.6367L719.629 27.3926L719.922 27.1484L720.264 26.9043L720.605 26.6602L720.947 26.123L721.24 25.8789L721.582 25.6348L721.924 25.3906L722.266 24.8535L722.559 24.6094L722.9 24.3652L723.193 24.0723L723.584 23.584L723.877 23.291L724.219 23.0469L724.512 22.8027L724.902 22.2656L725.195 22.0703L725.537 21.7773L725.83 21.5332L726.172 20.9961L726.514 20.752L726.807 20.5078L727.148 20.2637L727.49 19.7266L727.832 19.4824L728.125 19.2383L728.467 18.9941L728.76 18.75L729.15 18.2129L729.443 17.9688L729.785 17.7246L730.078 17.4805L730.42 16.9434L730.762 16.6992L731.104 16.4551L731.396 16.2109L731.787 15.6738L732.08 15.4297L732.422 15.1855L732.715 14.9414L733.057 14.4043L733.398 14.1602L733.691 13.916L734.033 13.623L734.375 13.1348L734.717 12.8906L735.01 12.6465L735.352 12.3535L735.645 12.1094L736.035 11.6211L736.328 11.3281L736.67 11.084L736.963 10.8398L737.305 10.3027L737.646 10.0586L737.939 9.81445L738.281 9.57031L738.623 9.0332L738.965 8.78906L739.307 8.54492L739.6 8.30078L739.941 8.05664L740.82 7.91016L741.699 7.71484L742.871 7.56836L743.75 7.37305L744.629 7.22656L745.801 7.08008L746.68 6.88477L747.607 6.68945L748.486 6.54297L749.658 6.39648L750.537 6.25L751.416 6.05469L752.588 5.9082L753.467 5.71289L754.346 5.56641L755.518 5.41992L756.396 5.22461L757.324 5.07812L758.447 4.93164L759.375 4.73633L760.254 4.58984L761.133 4.39453L762.305 4.24805ZM863.867 140.723C861.377 142.09 857.959 143.311 853.613 144.385C852.881 144.629 850.928 145.117 847.803 145.85C844.678 146.582 842.969 147.119 842.773 147.412C844.531 147.607 847.217 148.584 850.928 150.342C854.639 152.1 857.52 153.223 859.57 153.662C860.645 153.955 863.623 153.32 868.457 151.807C873.242 150.342 876.367 149.414 877.734 149.072L863.867 140.723ZM822.07 52.7344L802.246 51.7578L799.316 7.76367L778.174 6.64062V10.8398L777.832 48.3398L774.854 48.6816L773.438 48.584V69.1406H777.344C778.076 69.1406 778.369 70.7031 778.32 73.7305C778.223 76.8066 778.174 78.8086 778.174 79.6875C778.174 81.543 778.125 83.3984 778.076 85.3027C778.027 87.207 778.027 89.0137 778.125 90.7715C778.271 94.1895 778.369 97.8516 778.369 101.807C778.369 105.762 778.467 109.375 778.711 112.695C778.955 115.82 779.053 119.58 779.053 123.877C779.004 128.174 779.004 131.885 779.004 134.912C779.004 138.721 779.004 142.48 779.102 146.191C779.199 149.951 779.248 153.613 779.248 157.129L811.133 154.736L803.857 68.3105H824.756C825.439 68.3105 825.928 69.6777 826.27 72.3633C826.611 75.0977 826.855 76.8555 827.051 77.6367C827.344 79.2969 827.637 80.9082 827.93 82.5684C828.223 84.2285 828.516 85.7422 828.809 87.207C829.346 90.5273 829.932 93.7988 830.566 96.9727C831.152 100.146 831.738 103.32 832.275 106.543C833.252 112.988 834.375 119.531 835.742 126.123C836.182 128.369 836.865 131.689 837.744 136.035C838.623 140.381 839.062 143.506 839.16 145.459C841.992 144.824 846.436 143.799 852.539 142.432C858.643 141.064 862.305 139.453 863.574 137.695C864.648 136.133 865.479 134.326 866.064 132.227C866.65 130.127 867.236 127.979 867.773 125.83C868.506 122.705 868.701 120.459 868.311 118.994C867.92 117.578 867.188 115.625 866.162 113.184C864.502 109.473 862.939 105.664 861.475 101.758C860.01 97.8516 858.398 94.0918 856.738 90.4297C855.859 88.623 855.029 86.7188 854.248 84.7656C853.467 82.8125 852.734 80.9082 852.051 79.0039C851.416 77.4902 850.586 75.5859 849.512 73.3398C848.438 71.0938 847.754 69.1895 847.461 67.7246C848.486 67.5781 848.975 67.4805 848.877 67.4805H851.074L846.631 53.3203H843.018L830.908 15.8203L816.504 14.9902L822.07 52.7344ZM879.688 147.412L865.527 139.062C866.553 137.109 867.676 134.375 868.945 130.811C870.166 127.295 870.801 124.023 870.801 121.045C871.387 121.484 873.633 123.535 877.588 127.148C881.543 130.811 883.545 132.764 883.545 132.959V134.375C883.545 136.084 883.105 138.525 882.227 141.748C881.348 144.971 880.469 146.826 879.688 147.412ZM775.684 14.4531L775.928 4.19922H778.711L783.984 4.44336L789.258 4.73633L794.189 5.0293L799.463 5.27344L801.709 5.56641L801.953 6.39648L802.246 6.98242L802.539 7.22656L802.832 7.51953L803.076 7.76367L803.369 8.34961L803.613 8.64258L803.906 8.88672L804.199 9.17969L804.492 9.7168L804.736 10.0098L805.029 10.3027L805.322 10.5469L805.566 10.8398L805.859 11.4258L806.152 11.6699L806.396 11.9629L806.689 12.207L806.982 12.793L807.275 13.0859L807.52 13.3301L807.812 13.623L808.057 14.1602L808.35 14.4531L808.643 14.7461L808.936 14.9902L809.18 15.5762L809.473 15.8691L809.766 16.1133L810.01 16.4062L810.303 16.9434L810.596 17.2363L810.84 17.5293L811.133 17.7734L811.426 18.3594L811.67 18.6035L811.963 18.8965L812.256 19.1895L812.5 19.7266L812.793 20.0195L813.086 20.2637L813.33 20.5566L813.623 21.0938L813.916 21.3867L814.209 21.6797L814.453 21.9238L814.746 22.5098L814.99 22.8027V22.2168L814.746 20.2637L814.453 18.6035L814.209 16.6504L813.916 14.7461L813.623 12.793V12.5H816.943L821.973 12.793L826.953 13.0859L831.934 13.3301L832.764 13.623L833.057 14.1602L833.35 14.7461L833.594 14.9902L833.887 15.5762L834.131 15.8691L834.424 16.4062L834.717 16.6504L835.01 17.2363L835.254 17.5293L835.547 18.0664L835.84 18.3594L836.133 18.8965L836.377 19.1895L836.67 19.7266L836.914 20.0195L837.207 20.5566L837.5 20.8496L837.793 21.3867L838.037 21.6797L838.33 22.2168L838.574 22.5098L838.867 23.0469L839.16 23.3398L839.453 23.877L839.697 24.1699L839.99 24.707L840.283 25.293L840.527 25.5859L840.82 26.123L841.113 26.3672L841.357 26.9531L841.65 27.2461L841.943 27.7832L842.188 28.0273L842.48 28.6133L842.773 28.9062L843.018 29.4434L843.311 29.7363L843.604 30.2734L843.848 30.5664L844.141 31.1035L844.434 31.3965L844.727 31.9336L844.971 32.2266L845.264 32.7637L845.508 33.0566L845.801 33.5938L846.094 33.8867L846.387 34.4238L846.631 34.7168L846.924 35.2539L847.217 35.5469L847.461 36.084L847.754 36.377L848.047 36.9629L848.291 37.5L848.584 37.7441L848.877 38.3301L849.17 38.623L849.414 39.1602L849.707 39.4531L849.951 39.9902L850.244 40.2832L850.537 40.8203L850.83 41.1133L851.074 41.6504L851.367 41.9434L851.66 42.4805L851.904 42.7734L852.197 43.3105L852.49 43.6035L852.734 44.1895L853.027 44.4336L853.32 44.9707L853.613 45.2637L853.857 45.8496L854.15 46.0938L854.395 46.6309L854.688 46.9238L854.98 47.5098L855.273 47.7539L855.518 48.3398L855.811 48.877L856.104 49.707L856.348 50.5371L856.641 51.3672L856.934 52.1973L857.178 53.0273L857.471 53.8574L857.764 54.6875L858.008 55.5664L858.301 56.3477L858.594 57.2266L858.838 58.3008L859.131 59.1309L859.424 60.0098L859.668 60.791L859.961 61.6699L860.254 62.5L860.547 63.3301L860.791 64.1602L861.084 64.9902L861.328 65.8203L861.621 66.6504L861.914 67.4805L862.207 68.3105L862.451 69.1406L862.744 70.2637L862.988 71.0938L863.281 71.6309L863.574 72.168L863.867 72.4609L864.111 72.998L864.404 73.291L864.697 73.584L864.99 74.1211L865.234 74.3652L865.527 74.6582L865.771 75.2441L866.064 75.4883L866.357 76.0742L866.65 76.3672L866.895 76.6113L867.188 77.1484L867.432 77.4414L867.725 77.7344L868.018 78.2715L868.311 78.5645L868.555 79.3945L868.848 80.2246L869.141 81.3477L869.434 82.1777L869.678 83.0078L869.971 83.8379L870.215 84.668L870.508 85.498L870.801 86.3281L871.094 87.1582L871.338 88.2812L871.631 89.1113L871.875 89.9414L872.168 90.7715L872.461 91.6016V92.1875H871.875V92.7246L871.631 93.2617L871.338 93.5547H870.215L870.508 94.0918L870.801 94.9707L871.094 95.5078L871.338 96.0449L871.631 96.875L871.875 97.4609L872.168 98.2422L872.461 98.8281L872.754 99.6582L872.998 100.195L873.291 100.781L873.584 101.611L873.828 102.148L874.121 102.979L874.414 103.564L874.658 104.395L874.951 104.932L875.244 105.469L875.488 106.348L875.781 106.885L876.074 107.715L876.318 108.252L876.611 108.838L876.904 109.668L877.148 110.205L877.441 111.035L877.734 111.572L878.027 112.402L878.271 112.988L878.564 113.525L878.809 114.355L879.102 114.941L879.395 115.771L879.688 116.309L879.932 117.139L880.225 117.725L880.518 118.262L880.762 119.092L881.055 119.629L881.348 120.508L881.592 121.045L881.885 121.875L882.178 122.412L882.471 122.998L882.715 123.828L883.008 124.365L883.252 125.195L883.545 125.732L883.838 126.318L884.131 127.148L884.375 127.686L884.668 128.516L884.961 129.102L885.205 129.932L885.498 130.469L885.791 131.006L886.035 131.885V135.742L885.791 137.695L885.498 139.062L885.205 140.186L884.961 141.309L884.668 142.383L884.375 143.262L884.131 144.092L883.838 144.922L883.545 145.459L883.252 146.289L883.008 146.826L882.715 147.412L882.471 147.949L882.178 148.535L881.885 148.779L881.592 149.365L881.348 149.609L881.055 149.902L880.762 150.195L880.225 150.488L879.932 150.732L879.395 151.025L878.809 151.27L878.027 151.562L877.441 151.855L876.611 152.148L875.781 152.393L874.951 152.686L873.828 152.979L872.998 153.223L871.875 153.516L870.801 153.809L869.971 154.053L868.555 154.346L867.432 154.639L866.357 154.883L865.234 155.176L863.867 155.469L862.451 155.762L861.328 156.006H858.838L858.008 155.762L857.178 155.469L856.641 155.176L855.811 154.883L854.98 154.639L854.395 154.346L853.613 154.053L852.734 153.809L852.197 153.516L851.367 153.223L850.83 152.979L849.951 152.686L849.17 152.393L848.584 152.148L847.754 151.855L846.924 151.562L846.387 151.27L845.508 151.025L844.727 150.732L844.141 150.488L843.311 150.195L842.773 149.902L841.943 149.609L841.113 149.365L840.527 149.072L839.697 148.779L839.16 148.486L839.453 151.27L839.697 154.346L839.99 157.666L840.283 160.986V162.109L839.99 162.402L839.697 162.695L839.453 162.939L839.16 163.232L838.867 163.525L835.254 163.77L831.689 164.062L828.027 164.355L824.463 164.648L820.85 164.893L816.943 165.186L813.33 165.43H810.596L808.936 165.186L807.275 164.893L805.859 164.648L804.199 164.355L802.539 164.062L800.879 163.77L799.17 163.525L797.803 163.232L796.143 162.939L794.482 162.695L792.822 162.402L791.455 162.109L789.844 161.865L788.135 161.572L786.475 161.279L784.814 160.986L783.398 160.742L781.738 160.449L780.078 160.205L778.418 159.912L776.758 159.619L776.514 142.969L776.221 122.412L775.928 101.611L775.684 81.0547L775.391 74.1211L775.098 73.8281L774.561 73.584L774.268 73.291L773.73 72.998L773.438 72.7051L772.9 72.4609L772.607 72.168L772.07 71.9238L770.947 71.6309V46.3867L772.9 46.0938H775.391V44.7266L775.684 14.4531ZM883.545 132.959V134.375C883.545 136.084 883.105 138.525 882.227 141.748C881.348 144.971 880.469 146.826 879.688 147.412L865.527 139.062C866.553 137.109 867.676 134.375 868.945 130.811C870.166 127.295 870.801 124.023 870.801 121.045C871.387 121.484 873.633 123.535 877.588 127.148C881.543 130.811 883.545 132.764 883.545 132.959ZM877.734 149.072L863.867 140.723C861.377 142.09 857.959 143.311 853.613 144.385C852.881 144.629 850.928 145.117 847.803 145.85C844.678 146.582 842.969 147.119 842.773 147.412C844.531 147.607 847.217 148.584 850.928 150.342C854.639 152.1 857.52 153.223 859.57 153.662C860.645 153.955 863.623 153.32 868.457 151.807C873.242 150.342 876.367 149.414 877.734 149.072Z" fill="#6B64C3"/>
</svg>
