<svg width="32" height="32" viewBox="0 0 32 32" fill="none" xmlns="http://www.w3.org/2000/svg">
<rect width="32" height="32" fill="white"/>
<path d="M7.06445 11.0527C7.10547 11.0703 7.25195 11.2344 7.49805 11.5508C7.74414 11.8672 8.00781 12.2129 8.29492 12.5879C8.57617 12.9629 8.83984 13.3086 9.08008 13.6191C9.31445 13.9297 9.44922 14.082 9.48438 14.082C9.57812 14.082 9.98242 13.877 10.6973 13.4551C11.4121 13.0332 11.875 12.7988 12.0859 12.752L9.32617 6.41211C9.15039 6.45898 8.78125 6.62305 8.20703 6.91602C7.63281 7.20898 7.24609 7.40234 7.04102 7.50781L6.47852 7.78906L5.92773 8.06445C5.82227 8.11133 5.72852 8.1582 5.64062 8.19922C5.54688 8.24023 5.45312 8.28125 5.35938 8.32812C5.25977 8.375 5.17188 8.56836 5.0957 8.89648C4.97852 9.35352 4.86719 9.80469 4.76758 10.2441C4.66211 10.6836 4.55664 11.1289 4.43945 11.5801C4.38086 11.791 4.32227 12.0137 4.26367 12.2422C4.20508 12.4707 4.15234 12.6934 4.11133 12.916C4.04102 13.2617 3.98828 13.4844 3.94141 13.5898C3.89453 13.6953 3.67773 13.748 3.29102 13.748L2.00195 24.1836L8.95117 25.0684L13.1992 17.252L11.0898 15.6758L6.44336 20.5859L7.06445 11.0527ZM9.34961 6.04883L9.41992 6.01953H9.48438L9.51953 6.08398L9.54883 6.14844L9.58398 6.18359L9.61914 6.24805L9.6543 6.2832L9.68359 6.31836L9.71875 6.38281L9.75391 6.41797L9.7832 6.44727L9.81836 6.48242L9.85352 6.55273L9.88281 6.58203L9.91797 6.61719L9.95312 6.65234L9.98828 6.7168L10.0176 6.75195L10.0527 6.78125L10.082 6.85156L10.1172 6.88672L10.1523 6.91602L10.1875 6.95117L10.2168 7.01562L10.252 7.05078L10.2871 7.08594L10.3164 7.15039L10.3516 7.18555L10.3867 7.21484L10.416 7.25L10.4512 7.31445L10.4863 7.34961L10.5156 7.38477L10.5508 7.41406L10.5859 7.48438L10.6211 7.51953L10.6504 7.54883L10.6855 7.61328L10.7207 7.64844L10.75 7.68359L10.7852 7.71875L10.8203 7.7832L10.8496 7.81836L10.8848 7.85352L10.9199 7.91797L10.9551 7.94727L10.9844 7.98242L11.0195 8.01758L11.0488 8.08203L11.084 8.11719L11.1191 8.15234L11.1543 8.1875L11.1836 8.25195L11.2188 8.28125L11.2539 8.31641L11.2891 8.38672L11.3184 8.41602L11.3535 8.45117L11.3828 8.48633L11.418 8.55078L11.4531 8.58594L11.4883 8.61523L11.5176 8.68555L11.5527 8.71484L11.5879 8.75L11.6172 8.78516L11.6523 8.84961L11.6875 8.88477L11.7168 8.91406L11.752 8.94922L11.7871 9.01953L11.8164 9.04883L11.8516 9.08398L11.8867 9.14844L11.9219 9.18359L11.9512 9.21875L11.9863 9.24805L12.0156 9.31836L12.0508 9.35352L12.0859 9.38281L12.1211 9.41797L12.1504 9.48242L12.1855 9.51758L12.2207 9.55273L12.2559 9.61719L12.2852 9.65234L12.3203 9.6875L12.3496 9.7168L12.3848 9.78125L12.4199 9.81641L12.4551 9.85156L12.4844 9.91602L12.5195 9.95117L12.5547 10.0156L12.5898 10.0859L12.6191 10.1855L12.6543 10.25L12.6836 10.3203L12.7188 10.3848L12.7539 10.4844L12.7891 10.5488L12.8184 10.6191L12.8535 10.7188L12.8887 10.7832L12.918 10.8535L12.9531 10.918L12.9883 11.0176L13.0176 11.082L13.0527 11.1523L13.0879 11.252L13.1172 11.3164L13.1523 11.3867L13.1875 11.4512L13.2227 11.5508L13.252 11.6152L13.2871 11.6855L13.3164 11.7852L13.3516 11.8496L13.3867 11.9141L13.4219 11.9844L13.4512 12.084L13.4863 12.1543L13.5215 12.2188L13.5566 12.3184L13.5859 12.3828L13.6211 12.4531L13.6504 12.5176L13.6855 12.6172L13.7207 12.6875L13.7559 12.752L13.7852 12.8516L13.8203 12.916L13.8555 12.9863L13.8906 13.0508L13.9199 13.1504L13.9551 13.2148L13.9844 13.2852L14.0195 13.3496L14.0547 13.4492L14.0898 13.5195L14.1191 13.584L14.1543 13.6836L14.1895 13.748L14.2188 13.8184L14.2539 13.8828L14.2891 13.9883L14.3184 14.0527L14.3535 14.1172L14.3887 14.2168L14.418 14.2812L14.4531 14.3457L14.4883 14.416L14.5234 14.5156L14.5527 14.5859L14.5879 14.6504L14.6172 14.75L14.6523 14.8145L14.6875 14.8848L14.7227 14.9492L14.752 15.0488L14.7871 15.1133L14.8223 15.1836V15.248L14.7871 15.3477L14.752 15.4473L14.6875 15.4824L14.6172 15.5176L14.5527 15.5527L14.4883 15.582L14.418 15.6172L14.3535 15.6465L14.2891 15.6816L14.2188 15.7168L14.1543 15.752L14.1191 15.7812L14.0547 15.8164L13.9844 15.8516L13.9199 15.8809L13.8555 15.916L13.7852 15.9512L13.7207 15.9805L13.6504 16.0156L13.5859 16.0508L13.5215 16.0859L13.4863 16.1152L13.4219 16.1504L13.3516 16.1797L13.2871 16.2148L13.2227 16.25L13.1523 16.2852L13.0879 16.3145L13.0176 16.3496L12.9531 16.3848L12.8887 16.4141L12.8184 16.4492L12.7891 16.4844L12.7539 16.5137L12.7891 16.5488L12.8184 16.584L12.8887 16.6133L12.918 16.6484L12.9531 16.6836L13.0176 16.7188L13.0527 16.748L13.0879 16.7832L13.1523 16.8125L13.1875 16.8477L13.252 16.8828L13.2871 16.918L13.3164 16.9473L13.3867 16.9824L13.4219 17.0176L13.4512 17.0527L13.5215 17.082L13.5566 17.1172L13.5859 17.1465L13.6504 17.1816L13.6855 17.2168L13.7207 17.252L13.7852 17.2812L13.8203 17.3164L13.8555 17.3516L13.9199 17.3867L13.9551 17.416L13.9844 17.4512L14.0547 17.4805L14.0898 17.5156L14.1191 17.5508L14.1895 17.5859L14.2188 17.6152L14.2539 17.6504L14.2891 17.6855L14.3535 17.7148L14.3887 17.75L14.418 17.7852L14.4883 17.8145L14.5234 17.8496L14.5527 17.8848L14.6172 17.9141L14.6523 17.9492L14.6875 17.9844L14.752 18.0137L14.7871 18.0488L14.8223 18.084L14.8574 18.1133L14.9219 18.1484L14.9512 18.1836L14.9863 18.2188L15.0566 18.248L15.0859 18.2832L15.1211 18.3184L15.1914 18.3477L15.2207 18.3828L15.2559 18.418L15.2852 18.4473L15.3555 18.4824L15.3906 18.5176L15.4199 18.5527L15.4902 18.582L15.5195 18.6172L15.5547 18.6465L15.6191 18.6816L15.6543 18.7168L15.6895 18.8164V18.9512L15.6543 19.0156L15.6191 19.0859L15.5898 19.1504L15.5547 19.2148L15.5195 19.25L15.4902 19.3145L15.4551 19.3848L15.4199 19.4492L15.3906 19.5195L15.3555 19.584L15.3203 19.6484L15.2852 19.6836L15.2559 19.748L15.2207 19.8184L15.1914 19.8828L15.1562 19.9473L15.1211 20.0176L15.0859 20.0527L15.0566 20.1172L15.0215 20.1816L14.9863 20.252L14.9512 20.3164L14.9219 20.3867L14.8867 20.4512L14.8574 20.4805L14.8223 20.5508L14.7871 20.6152L14.752 20.6855L14.7227 20.75L14.6875 20.8145L14.6523 20.8496L14.6172 20.9141L14.5879 20.9844L14.5527 21.0488L14.5234 21.1133L14.4883 21.1836L14.4531 21.2188L14.418 21.2832L14.3887 21.3535L14.3535 21.418L14.3184 21.4824L14.2891 21.5527L14.2539 21.6172L14.2188 21.6523L14.1895 21.7168L14.1543 21.7812L14.1191 21.8516L14.0898 21.916L14.0547 21.9863L14.0195 22.0156L13.9844 22.0859L13.9551 22.1504L13.9199 22.2148L13.8906 22.2852L13.8555 22.3496L13.8203 22.4141L13.7852 22.4492L13.7559 22.5195L13.7207 22.584L13.6855 22.6484L13.6504 22.7188L13.6211 22.7832L13.5859 22.8184L13.5566 22.8828L13.5215 22.9473L13.4863 23.0176L13.4512 23.082L13.4219 23.1523L13.3867 23.2168L13.3516 23.252L13.3164 23.3164L13.2871 23.3867L13.252 23.4512L13.2227 23.5156L13.1875 23.5859L13.1523 23.6152L13.1172 23.6855L13.0879 23.75L13.0527 23.8203L13.0176 23.8848L12.9883 23.9492L12.9531 23.9844L12.918 24.0488L12.8887 24.1191L12.8535 24.1836L12.8184 24.248L12.7891 24.3184L12.7539 24.3828L12.7188 24.418L12.6836 24.4824L12.6543 24.5527L12.6191 24.6172L12.5898 24.6875L12.5547 24.752L12.5195 24.7812L12.4844 24.8516L12.4551 24.916L12.4199 24.9863L12.3848 25.0508L12.3496 25.1152L12.3203 25.1855L12.2852 25.2148L12.2559 25.2852L12.2207 25.3203L12.1855 25.3496L12.1211 25.3848H9.01562L8.75195 25.3496L8.48242 25.3203L8.21875 25.2852L7.94922 25.25L7.71484 25.2148L7.45117 25.1855L7.1875 25.1504L6.91797 25.1152L6.64844 25.0859L6.38477 25.0508L6.11523 25.0156L5.85156 24.9863L5.61719 24.9512L5.34766 24.916L5.08398 24.8867L4.81445 24.8516L4.55078 24.8164L4.28125 24.7812L4.01172 24.752L3.75391 24.7168L3.49023 24.6875L3.25586 24.6523L2.98633 24.6172L2.7168 24.582L2.45312 24.5527L2.18945 24.5176L1.91992 24.4824L1.68555 24.4473V24.2832L1.7207 24.0195L1.75 23.75L1.78516 23.4863L1.82031 23.2168L1.85547 22.9473L1.88477 22.6484L1.91992 22.3848L1.95508 22.1152L1.99023 21.8516L2.01953 21.582L2.05469 21.3184L2.08398 21.0488L2.11914 20.7852L2.1543 20.5156L2.18945 20.252L2.21875 19.9824L2.25391 19.7188L2.28906 19.4492L2.31836 19.1504L2.35352 18.8867L2.38867 18.6172L2.41797 18.3477L2.45312 18.084L2.48828 17.8145L2.51758 17.5508L2.55273 17.2812L2.58789 17.0176L2.62305 16.748L2.65234 16.4844L2.6875 16.2148L2.7168 15.9512L2.75195 15.6465L2.78711 15.3828L2.82227 15.1133L2.85156 14.8496L2.88672 14.5859L2.92188 14.3164L2.95703 14.0527L2.98633 13.7832L3.02148 13.5195L3.12109 13.4844L3.38477 13.4492L3.61914 13.4199L3.68945 13.3848L3.71875 13.25L3.75391 13.1152L3.78906 12.9863L3.81836 12.8516L3.85352 12.7168L3.88867 12.582L3.92383 12.4531L3.95312 12.3184L3.98828 12.1836L4.01172 12.0488L4.04688 11.8848L4.08203 11.75L4.11719 11.6152L4.14648 11.4863L4.18164 11.3516L4.2168 11.2168L4.25195 11.082L4.28125 10.9531L4.31641 10.8184L4.3457 10.6836L4.38086 10.5195L4.41602 10.3848L4.45117 10.25L4.48047 10.1152L4.51562 9.98633L4.55078 9.85156L4.58594 9.7168L4.61523 9.58203L4.65039 9.44727L4.67969 9.31836L4.71484 9.18359L4.75 9.01953L4.78516 8.88477L4.81445 8.75L4.84961 8.61523L4.88477 8.48633L4.91406 8.35156L4.94922 8.2168L4.98438 8.1875L5.04883 8.15234L5.11328 8.11719L5.18359 8.08203L5.24805 8.05273L5.3125 8.01758L5.38281 7.98242L5.44727 7.94727L5.51758 7.91797L5.58203 7.88281L5.64648 7.85352L5.7168 7.81836L5.78125 7.7832L5.85156 7.74805L5.91602 7.71875L5.98047 7.68359L6.08594 7.64844L6.15039 7.61328L6.21484 7.58398L6.28516 7.54883L6.34961 7.51953L6.41406 7.48438L6.48438 7.44922L6.54883 7.41406L6.61328 7.38477L6.68359 7.34961L6.74805 7.31445L6.81836 7.28516L6.88281 7.25L6.94727 7.21484L7.01758 7.18555L7.08203 7.15039L7.15234 7.11523L7.2168 7.08594L7.28125 7.05078L7.35156 7.01562L7.41602 6.98633L7.48633 6.95117L7.55078 6.91602L7.61523 6.88672L7.71484 6.85156L7.78516 6.81641L7.84961 6.78125L7.91406 6.75195L7.98438 6.7168L8.04883 6.6875L8.11914 6.65234L8.18359 6.61719L8.24805 6.58203L8.31836 6.55273L8.38281 6.51758L8.45312 6.48242L8.51758 6.44727L8.58203 6.41797L8.65234 6.38281L8.7168 6.35352L8.78711 6.31836L8.85156 6.2832L8.91602 6.24805L8.98633 6.21875L9.05078 6.18359L9.12109 6.14844L9.18555 6.11328L9.28516 6.08398L9.34961 6.04883ZM18.625 16.3379C18.5195 16.209 18.373 15.834 18.1855 15.2129C17.998 14.5918 17.8574 14.1582 17.7754 13.9238C17.6289 13.5371 17.4883 13.1387 17.3477 12.7227L16.9375 11.4805C16.8672 11.2812 16.7969 11.0762 16.7383 10.8711C16.6738 10.6719 16.6035 10.4668 16.5332 10.2617C16.4863 10.1562 16.416 9.95703 16.3164 9.65234C16.2578 9.48242 16.2227 9.37109 16.2109 9.32422C16.1992 9.27734 16.1172 9.23633 15.9531 9.18945C15.7363 9.14258 15.5195 9.08398 15.3027 9.02539C15.0859 8.9668 14.875 8.9082 14.6641 8.84961C14.5352 8.82031 14.3125 8.76758 13.9902 8.68555C13.6621 8.60938 13.457 8.54492 13.3633 8.49805C13.4863 9.00781 13.6445 9.64648 13.8379 10.4141C13.8848 10.6016 13.9727 10.9414 14.1016 11.4219C14.2305 11.9082 14.3008 12.2246 14.3008 12.3652C14.3008 12.5176 14.2656 12.752 14.1953 13.0801C14.125 13.4082 14.0723 13.6602 14.0371 13.8359C13.9902 14.082 13.9434 14.3281 13.8965 14.5625C13.8496 14.7969 13.8027 15.0371 13.7559 15.2832C13.6621 15.7871 13.5742 16.2793 13.4805 16.7598C13.3867 17.2402 13.2988 17.7266 13.2051 18.2188C13.1113 18.7285 13.0117 19.2148 12.918 19.6836C12.8184 20.1523 12.7188 20.627 12.6191 21.1191C12.5723 21.3711 12.5195 21.6113 12.4727 21.8398C12.4258 22.0684 12.373 22.3027 12.3203 22.5488C12.2793 22.748 12.2207 22.9941 12.1504 23.2812C12.0801 23.5684 12.0332 23.8086 12.0215 24.002L12.9883 24.3535C13.293 24.1543 13.6094 23.9551 13.9434 23.7676C14.2773 23.5801 14.6055 23.3867 14.9219 23.1875C15.0391 23.1172 15.209 23.0234 15.4258 22.9062C15.6367 22.7949 15.7656 22.6602 15.8008 22.5078C15.8594 22.1914 15.9531 21.7637 16.0762 21.2305C16.2754 20.3164 16.457 19.4609 16.6211 18.6699C16.6621 18.4473 16.7031 18.2363 16.75 18.0312C16.7969 17.8262 16.8438 17.6094 16.8906 17.3809C16.9141 17.2402 16.9668 17.0293 17.043 16.7363C17.1191 16.4492 17.166 16.2324 17.1836 16.0859L18.8887 21.1074L20.3711 21.1777L19.5625 13.502L23.2773 23.7559L26.1074 24.1133C26.1543 24.125 26.4121 23.8848 26.8809 23.4043C27.3496 22.9238 27.6367 22.6426 27.7539 22.5605L23.1016 12.6816L23.4473 12.541C23.3945 12.3301 23.2715 12.0195 23.0723 11.6094C22.873 11.1992 22.7266 10.8711 22.6328 10.625C22.5801 10.5078 22.4395 10.168 22.2051 9.59375C21.9707 9.02539 21.8242 8.73828 21.7539 8.73828H21.0625C21.0332 8.62695 20.9512 8.45117 20.8164 8.21094C20.6816 7.97656 20.582 7.78906 20.5234 7.6543C20.459 7.53711 20.3652 7.34375 20.248 7.08008C20.1309 6.82227 20.0078 6.66992 19.8906 6.63477C19.4512 6.52344 19 6.41797 18.543 6.31836C18.0859 6.21875 17.6348 6.11328 17.1895 6.00781L18.625 16.3379ZM16.8496 5.83789V5.63281H16.9492L17.0898 5.66211L17.2305 5.69727L17.4004 5.73242L17.541 5.76758L17.6816 5.80273L17.8516 5.83789L17.9863 5.87305L18.127 5.9082L18.3027 5.94336L18.4375 5.97852L18.5781 6.00781L18.748 6.04297L18.8887 6.07812L19.0586 6.11328L19.1992 6.14844L19.3398 6.18359L19.5098 6.21875L19.6445 6.25391L19.7852 6.28906L19.9609 6.32422L20.0957 6.35352L20.2363 6.38867L20.2656 6.45898L20.3066 6.49414L20.3359 6.5293L20.3711 6.56445L20.4062 6.59961L20.4414 6.63477L20.4766 6.66992L20.5117 6.69922L20.5469 6.73438L20.582 6.76953L20.6113 6.80469L20.6523 6.83984L20.6816 6.875L20.7168 6.91016L20.752 6.98047L20.7871 7.00977L20.8223 7.04492L20.8574 7.08008L20.8926 7.11523L20.9277 7.15039L20.957 7.18555L20.998 7.2207L21.0273 7.25586L21.0625 7.29102L21.0977 7.32031L21.1328 7.35547L21.168 7.39062L21.2031 7.42578L21.2383 7.46094L21.2734 7.49609L21.3027 7.53125L21.3438 7.56641L21.373 7.60156L21.4082 7.66602L21.4434 7.70117L21.4785 7.73633L21.5137 7.77148L21.5488 7.80664L21.584 7.8418L21.6191 7.87695L21.6484 7.91211L21.6836 7.94727L21.7188 7.98242L21.7539 8.01172L21.7891 8.04688L21.8242 8.08203L21.8594 8.11719L21.8945 8.15234L21.9297 8.1875L21.9648 8.22266L21.9941 8.25781L22.0293 8.32227L22.0645 8.35742L22.0996 8.39258L22.1348 8.42773L22.1699 8.46289L22.2051 8.49805L22.2402 8.5332L22.2754 8.56836L22.3105 8.60352L22.3398 8.63867L22.375 8.66797L22.4102 8.70312L22.4453 8.73828L22.4805 8.77344L22.5156 8.80859L22.5508 8.84375L22.5859 8.87891L22.6152 8.91406L22.6562 8.98438L22.6855 9.01367L22.7207 9.04883L22.7559 9.08398L22.791 9.11914L22.8262 9.1543L22.8613 9.18945L22.8965 9.22461L22.9316 9.25977L22.9609 9.29492L22.9961 9.33008L23.0312 9.35938L23.0664 9.39453L23.1016 9.42969L23.1367 9.46484L23.1719 9.5L23.207 9.53516L23.2422 9.57031L23.2773 9.60547L23.3066 9.66992L23.3418 9.70508L23.377 9.74023L23.4121 9.77539L23.4473 9.81055L23.4824 9.8457L23.5176 9.88086L23.5527 9.91602L23.5879 9.95117L23.623 9.98047L23.6523 10.0156L23.6875 10.0508L23.7227 10.0859L23.7578 10.1211L23.793 10.1562L23.8281 10.1914L23.8633 10.2266L23.8984 10.2617L23.9336 10.3262L23.9688 10.3613L23.998 10.3965L24.0332 10.4316L24.0684 10.4668L24.1035 10.502L24.1387 10.5371L24.1738 10.5723L24.209 10.6074L24.2441 10.6426L24.2793 10.6719L24.3086 10.707L24.3438 10.7422L24.3789 10.7773L24.4141 10.8125L24.4492 10.8477L24.4844 10.8828L24.5195 10.9531L24.5547 11.0176L24.5898 11.0879L24.625 11.1582L24.6543 11.1934L24.6895 11.2285L24.7246 11.2988L24.7598 11.334L24.7949 11.3633L24.8301 11.3984L24.8652 11.4336L24.9004 11.4688L24.9355 11.5039L24.9648 11.5391L25 11.5742L25.0352 11.6094L25.0703 11.6387L25.1055 11.6797L25.1406 11.709L25.1758 11.7441L25.2109 11.7793L25.2461 11.8145L25.2812 11.8496L25.3105 11.8848L25.3457 11.9199L25.3809 11.9551L25.416 11.9844L25.4512 12.0195L25.4863 12.0898L25.5215 12.125L25.5566 12.1602L25.5918 12.1953L25.627 12.2305L25.6562 12.2656L25.6914 12.3008L25.7266 12.3301L25.7617 12.3652L25.7969 12.4004L25.832 12.4355L25.8672 12.4707L25.9023 12.5059L25.9375 12.541L25.9668 12.6113L26.002 12.6758L26.0371 12.7812L26.0723 12.8516L26.1074 12.957L26.1426 13.0215L26.1777 13.0918L26.2129 13.1973L26.248 13.2676L26.2832 13.3379L26.3125 13.4375L26.3477 13.5078L26.3828 13.5781L26.418 13.6836L26.4531 13.748L26.4824 13.8184L26.5176 13.9238L26.5527 13.9883L26.5879 14.0586L26.623 14.1641L26.6582 14.2285L26.6934 14.2988L26.7285 14.4043L26.7637 14.4746L26.7988 14.5742L26.8281 14.6445L26.8633 14.7148L26.8984 14.8203L26.9336 14.8906L26.9688 14.9551L27.0039 15.0605L27.0391 15.1309L27.0742 15.1953L27.1035 15.3008L27.1445 15.3711L27.1738 15.4414L27.209 15.541L27.2441 15.6113L27.2793 15.6816L27.3145 15.7871V15.8164H27.2441V15.9922L27.1738 16.0273H27.1035L27.1445 16.1328L27.1738 16.2031L27.209 16.2676L27.2441 16.3379L27.2793 16.4082L27.3145 16.4785L27.3496 16.5488L27.3848 16.6133L27.4199 16.7188L27.4492 16.7891L27.4902 16.8535L27.5195 16.9238L27.5547 16.9941L27.5898 17.0645L27.625 17.1348L27.6602 17.1992L27.6953 17.2695L27.7305 17.375L27.7656 17.4453L27.7949 17.5156L27.8359 17.5859L27.8652 17.6504L27.9004 17.7207L27.9355 17.791L27.9707 17.8613L28.0059 17.9609L28.041 18.0312L28.0762 18.1016L28.1113 18.166L28.1406 18.2363L28.1816 18.3066L28.2109 18.377L28.2461 18.4473L28.2812 18.5117L28.3164 18.6172L28.3516 18.6875L28.3867 18.7578L28.4219 18.8281L28.457 18.8984L28.4863 18.9629L28.5273 19.0332L28.5566 19.1035L28.5918 19.2031L28.627 19.2734L28.6621 19.3438L28.6973 19.4141L28.7324 19.4844L28.7617 19.5488L28.8027 19.6191L28.832 19.6895L28.8672 19.7598L28.9023 19.8652L28.9375 19.9297L28.9727 20L29.0078 20.0703L29.043 20.1406L29.0781 20.2109L29.1074 20.2754L29.1484 20.3457L29.1777 20.4512L29.2129 20.5156L29.248 20.5859L29.2832 20.6562L29.3184 20.7266L29.3535 20.7969L29.3887 20.8613L29.4238 20.9316L29.4531 21.0371L29.4941 21.1074L29.5234 21.1777L29.5586 21.2422L29.5938 21.3125L29.6289 21.3828L29.6641 21.4531L29.6992 21.5234L29.7344 21.5879L29.7695 21.6934L29.7988 21.7637L29.8398 21.834L29.8691 21.8984L29.9043 21.9688L29.9395 22.0391L29.9746 22.1094L30.0098 22.1797L30.0449 22.2793L30.0801 22.3496L30.1152 22.4199L30.1445 22.4902L30.1855 22.5605L30.2148 22.625L30.25 22.6953L30.2852 22.7656L30.3203 22.8359L30.3555 22.9355L30.3906 23.0059L30.4258 23.0762L30.4609 23.1465L30.4902 23.2109L30.5312 23.2812L30.5605 23.3516L30.5957 23.4219L30.6309 23.5273L30.666 23.5918L30.7012 23.6621L30.7363 23.7324V23.8027L30.7012 23.9727L30.666 24.0078L30.6309 24.043L30.5957 24.0781L30.5605 24.1133L30.5312 24.1484L30.4902 24.1836L30.4609 24.2129L30.4258 24.248L30.3906 24.2832L30.3555 24.3184L30.3203 24.3535L30.2852 24.3887L30.25 24.4238L30.1855 24.459L30.1445 24.4941L30.1152 24.5293L30.0801 24.5586L30.0449 24.5938L30.0098 24.6289L29.9746 24.6641L29.9395 24.6992L29.9043 24.7344L29.8691 24.7695L29.8398 24.8047L29.7988 24.8398L29.7695 24.8691L29.7344 24.9043L29.6992 24.9395L29.6641 24.9746L29.6289 25.0098L29.5938 25.0449L29.5586 25.0801L29.5234 25.1152L29.4941 25.1504L29.4531 25.1855L29.4238 25.2148L29.3887 25.25L29.3535 25.2852L29.3184 25.3203L29.2129 25.3555H29.1074L28.8672 25.3203L28.5918 25.2852L28.3164 25.25L28.041 25.2148L27.7949 25.1855L27.5195 25.1504L27.2441 25.1152L26.9688 25.0801L26.7285 25.0449L26.5879 25.0098L26.4824 24.9746L26.3477 24.9395L26.2129 24.9043L26.1074 24.8691L25.9668 24.8398L25.8672 24.8047L25.7266 24.7695L25.5918 24.7344L25.4863 24.6992L25.3457 24.6641L25.2109 24.6289L25.1055 24.5938L24.9648 24.5586L24.8301 24.5293L24.7246 24.4941L24.5898 24.459L24.4492 24.4238L24.3438 24.3887L24.209 24.3535L24.0684 24.3184L23.9688 24.2832L23.8281 24.248L23.7227 24.2129L23.5879 24.1836L23.4473 24.1484L23.3418 24.1133L23.207 24.0781L23.0312 24.043L22.9961 23.9375L22.9609 23.8379L22.9316 23.7676L22.8965 23.6621L22.8613 23.5566L22.8262 23.457L22.791 23.3516L22.7559 23.2812L22.7207 23.1816L22.6855 23.0762L22.6562 22.9707L22.6152 22.9004L22.5859 22.8008L22.5508 22.6953L22.4453 22.6602L22.3398 22.625L22.2402 22.5898L22.1348 22.5605L22.0293 22.5195L21.9297 22.4902L21.8242 22.4551L21.7188 22.4199L21.6191 22.3848L21.5137 22.3496L21.4785 22.4199L21.4434 22.5898L21.4082 22.7305L21.373 22.9004L21.3438 23.0762L21.3027 23.2109L21.2734 23.3867L21.2383 23.5566L21.2031 23.6973L21.168 23.873L21.1328 24.043H21.0625V24.1133L21.0273 24.1484L20.957 24.1836L20.9277 24.2129L20.8574 24.248L20.7871 24.2832L20.752 24.3184L20.6816 24.3535L20.6113 24.3887L20.582 24.4238L20.5117 24.459L20.4414 24.4941L20.4062 24.5293L20.3359 24.5586L20.2656 24.5938L20.2363 24.6289L20.166 24.6641L20.0957 24.6992L20.0605 24.7344L19.9902 24.7695L19.9258 24.8047L19.8906 24.8398L19.8203 24.8691L19.75 24.9043L19.7148 24.9395L19.6445 24.9746L19.5801 25.0098L19.5449 25.0449L19.4746 25.0801L19.4043 25.1152L19.3691 25.1504L19.2988 25.1855L19.2344 25.2148L19.1992 25.25L19.1289 25.2852L19.0586 25.3203L19.0234 25.3555L18.9531 25.3906L18.8887 25.4258L18.8535 25.4609L18.7832 25.4961L18.7129 25.5312H18.5078L18.2617 25.4961L18.0566 25.4609L17.8164 25.4258L17.6113 25.3906L17.3652 25.3555L17.1602 25.3203L16.9199 25.2852L16.709 25.25L16.4688 25.2148L16.2578 25.1855L16.0176 25.1504L15.8125 25.1152L15.5723 25.0801L15.3613 25.0449L15.1211 25.0098L14.916 24.9746L14.6699 24.9395L14.4707 24.9043L14.2305 24.8691L14.0195 24.8398L13.7793 24.8047L13.5742 24.7695L13.334 24.7344L13.123 24.6992L12.918 24.6641L12.8477 24.6289L12.7422 24.5938L12.6426 24.5586L12.5371 24.5293L12.4316 24.4941L12.3613 24.459L12.2617 24.4238L12.1562 24.3887L12.0508 24.3535L11.9805 24.3184L11.8809 24.2832L11.7754 24.248L11.6699 24.2129V24.0781L11.7051 23.9375L11.7402 23.7676L11.7754 23.5918L11.8105 23.4219L11.8457 23.2812L11.8809 23.1113L11.916 22.9355L11.9512 22.7656L11.9805 22.625L12.0156 22.4551L12.0508 22.2793L12.0859 22.1094L12.1211 21.9688L12.1562 21.7988L12.1914 21.623L12.2266 21.4883L12.2617 21.3125L12.2969 21.1426L12.3262 20.9668L12.3613 20.832L12.3965 20.6562L12.4316 20.4863L12.4668 20.3105L12.502 20.1699L12.5371 20L12.5723 19.8301L12.6074 19.6543L12.6426 19.5195L12.6719 19.3438L12.707 19.1738L12.7422 18.998L12.7773 18.8281L12.8125 18.6172L12.8477 18.4473L12.8828 18.2715L12.918 18.0664L12.9531 17.8906L12.9883 17.7207L13.0176 17.5449L13.0527 17.3398L13.0879 17.1699L13.123 16.9941L13.1582 16.7891L13.1934 16.6133L13.2285 16.4434L13.2637 16.2324L13.293 16.0625L13.334 15.8867L13.3633 15.6816L13.3984 15.5117L13.4336 15.3359L13.4688 15.1309L13.5039 14.9551L13.5391 14.7852L13.5742 14.5742L13.6094 14.4043L13.6387 14.2285L13.6738 14.0293L13.709 13.8535L13.7441 13.6836L13.7793 13.5078L13.8145 13.2969L13.8496 13.127L13.8848 12.957L13.9199 12.7461L13.9551 12.5762L13.9844 12.4004V12.3301L13.9551 12.1953L13.9199 12.0547L13.8848 11.9199L13.8496 11.7793L13.8145 11.6387L13.7793 11.5039L13.7441 11.3633L13.709 11.2285L13.6738 11.0879L13.6387 10.9531L13.6094 10.7773L13.5742 10.6426L13.5391 10.502L13.5039 10.3613L13.4688 10.2266L13.4336 10.0859L13.3984 9.95117L13.3633 9.81055L13.334 9.66992L13.293 9.53516L13.2637 9.39453L13.2285 9.25977L13.1934 9.11914L13.1582 8.94922L13.123 8.80859L13.0879 8.66797L13.0527 8.5332L13.0176 8.39258L12.9883 8.25781V8.08203H13.0176L13.123 8.11719L13.2637 8.15234L13.3984 8.1875L13.5391 8.22266L13.6738 8.25781L13.7793 8.29297L13.9199 8.32227L14.0547 8.35742L14.1953 8.39258L14.3301 8.42773L14.4355 8.46289L14.5703 8.49805L14.7051 8.5332L14.8457 8.56836L14.9453 8.60352L15.0859 8.63867L15.2266 8.66797L15.3613 8.70312L15.502 8.73828L15.6074 8.77344L15.7422 8.80859L15.8828 8.84375L16.0176 8.87891L16.1582 8.91406L16.2578 8.94922L16.3984 8.98438L16.4336 9.01367L16.4688 9.04883L16.5039 9.08398L16.5742 9.11914L16.6035 9.1543L16.6445 9.18945L16.6738 9.22461L16.7441 9.25977L16.7793 9.29492L16.8145 9.33008L16.8496 9.35938L16.9199 9.39453L16.9492 9.42969L16.9902 9.46484L17.0195 9.5L17.0898 9.53516L17.125 9.57031L17.1602 9.60547L17.2305 9.64062L17.2656 9.66992L17.2949 9.70508L17.3359 9.74023L17.4004 9.78125L17.3652 9.57031L17.3359 9.33008L17.2949 9.08398L17.2656 8.80859L17.2305 8.56836L17.1953 8.32227L17.1602 8.08203L17.125 7.8418L17.0898 7.60156L17.0547 7.32031L17.0195 7.08008L16.9902 6.83984L16.9492 6.59961L16.9199 6.35352L16.8848 6.07812L16.8496 5.83789Z" fill="#6B64C3"/>
</svg>
